<mxfile host="65bd71144e" pages="7">
    <diagram name="Business Flow Chart" id="CO8c-XYk3vwqfi9IgGvG">
        <mxGraphModel dx="1938" dy="2276" grid="1" gridSize="10" guides="1" tooltips="1" connect="1" arrows="1" fold="1" page="1" pageScale="1" pageWidth="850" pageHeight="1100" math="0" shadow="0">
            <root>
                <mxCell id="0"/>
                <mxCell id="1" parent="0"/>
                <mxCell id="16" value="" style="rounded=0;whiteSpace=wrap;html=1;" parent="1" vertex="1">
                    <mxGeometry x="540" y="40" width="310" height="370" as="geometry"/>
                </mxCell>
                <mxCell id="W38jNCUu7FZMQDi1C7XV-1" value="" style="rounded=0;whiteSpace=wrap;html=1;" parent="1" vertex="1">
                    <mxGeometry x="40" y="40" width="310" height="370" as="geometry"/>
                </mxCell>
                <mxCell id="W38jNCUu7FZMQDi1C7XV-29" value="" style="ellipse;whiteSpace=wrap;html=1;aspect=fixed;" parent="1" vertex="1">
                    <mxGeometry x="550" y="125.5" width="35" height="35" as="geometry"/>
                </mxCell>
                <mxCell id="W38jNCUu7FZMQDi1C7XV-30" value="Stuido Image" style="rounded=0;whiteSpace=wrap;html=1;" parent="1" vertex="1">
                    <mxGeometry x="547.5" y="50" width="292.5" height="70" as="geometry"/>
                </mxCell>
                <mxCell id="W38jNCUu7FZMQDi1C7XV-31" value="" style="rounded=0;whiteSpace=wrap;html=1;" parent="1" vertex="1">
                    <mxGeometry x="728.75" y="176" width="110" height="95.25" as="geometry"/>
                </mxCell>
                <mxCell id="W38jNCUu7FZMQDi1C7XV-32" value="" style="rounded=0;whiteSpace=wrap;html=1;" parent="1" vertex="1">
                    <mxGeometry x="598.75" y="130.5" width="102.5" height="21" as="geometry"/>
                </mxCell>
                <mxCell id="W38jNCUu7FZMQDi1C7XV-37" value="Studio Info" style="rounded=0;whiteSpace=wrap;html=1;" parent="1" vertex="1">
                    <mxGeometry x="548.75" y="176" width="170" height="169.5" as="geometry"/>
                </mxCell>
                <mxCell id="W38jNCUu7FZMQDi1C7XV-65" value="" style="rounded=0;whiteSpace=wrap;html=1;" parent="1" vertex="1">
                    <mxGeometry x="52" y="80" width="276" height="85" as="geometry"/>
                </mxCell>
                <mxCell id="W38jNCUu7FZMQDi1C7XV-66" value="" style="rounded=0;whiteSpace=wrap;html=1;" parent="1" vertex="1">
                    <mxGeometry x="50" y="50" width="280" height="20" as="geometry"/>
                </mxCell>
                <mxCell id="W38jNCUu7FZMQDi1C7XV-74" value="&lt;b style=&quot;font-size: 15px;&quot;&gt;Pending feature: &lt;/b&gt;&lt;br style=&quot;font-size: 15px;&quot;&gt;- Time block&amp;nbsp;&lt;br style=&quot;font-size: 15px;&quot;&gt;- User Login for booking history&lt;br&gt;- Forget password for owner login&lt;br&gt;- Search Bar to look for studio in desired district/location&amp;nbsp;" style="text;html=1;strokeColor=#005700;fillColor=#008a00;align=center;verticalAlign=middle;whiteSpace=wrap;rounded=0;fontColor=#ffffff;fontSize=15;" parent="1" vertex="1">
                    <mxGeometry x="180" y="-273" width="280" height="148" as="geometry"/>
                </mxCell>
                <mxCell id="W38jNCUu7FZMQDi1C7XV-113" value="&lt;font style=&quot;font-size: 20px;&quot;&gt;1. Homepage&lt;/font&gt;" style="rounded=1;whiteSpace=wrap;html=1;fillColor=#1ba1e2;strokeColor=#006EAF;fontColor=#ffffff;" parent="1" vertex="1">
                    <mxGeometry x="110" y="-90" width="160" height="60" as="geometry"/>
                </mxCell>
                <mxCell id="W38jNCUu7FZMQDi1C7XV-114" value="&lt;font style=&quot;font-size: 20px;&quot;&gt;2. Booking&lt;/font&gt;" style="rounded=1;whiteSpace=wrap;html=1;fillColor=#1ba1e2;strokeColor=#006EAF;fontColor=#ffffff;fontSize=20;" parent="1" vertex="1">
                    <mxGeometry x="618.75" y="-100" width="120" height="60" as="geometry"/>
                </mxCell>
                <mxCell id="W38jNCUu7FZMQDi1C7XV-144" value="Reference: https://reubird.hk/search/type/party-room" style="text;html=1;strokeColor=none;fillColor=none;align=center;verticalAlign=middle;whiteSpace=wrap;rounded=0;" parent="1" vertex="1">
                    <mxGeometry x="80" y="-20" width="230" height="30" as="geometry"/>
                </mxCell>
                <mxCell id="W38jNCUu7FZMQDi1C7XV-162" value="Reference: &lt;br&gt;https://reubird.hk/party-room/partyroom-party-romantic/partyroom-party-romantic-13237" style="text;html=1;strokeColor=none;fillColor=none;align=center;verticalAlign=middle;whiteSpace=wrap;rounded=0;" parent="1" vertex="1">
                    <mxGeometry x="520" y="-20" width="300" height="30" as="geometry"/>
                </mxCell>
                <mxCell id="W38jNCUu7FZMQDi1C7XV-167" value="&lt;font style=&quot;font-size: 20px;&quot;&gt;3. Studio Owner Panel (booking request)&lt;/font&gt;" style="rounded=1;whiteSpace=wrap;html=1;fillColor=#1ba1e2;strokeColor=#006EAF;fontSize=15;fontColor=#ffffff;" parent="1" vertex="1">
                    <mxGeometry x="1208.5" y="-90" width="261.5" height="60" as="geometry"/>
                </mxCell>
                <mxCell id="2" value="" style="rounded=0;whiteSpace=wrap;html=1;" parent="1" vertex="1">
                    <mxGeometry x="52" y="185" width="278" height="125" as="geometry"/>
                </mxCell>
                <mxCell id="3" value="" style="whiteSpace=wrap;html=1;aspect=fixed;" parent="1" vertex="1">
                    <mxGeometry x="60" y="202.5" width="80" height="80" as="geometry"/>
                </mxCell>
                <mxCell id="4" value="" style="whiteSpace=wrap;html=1;aspect=fixed;" parent="1" vertex="1">
                    <mxGeometry x="150" y="203.5" width="80" height="80" as="geometry"/>
                </mxCell>
                <mxCell id="5" value="" style="whiteSpace=wrap;html=1;aspect=fixed;" parent="1" vertex="1">
                    <mxGeometry x="240" y="203.5" width="80" height="80" as="geometry"/>
                </mxCell>
                <mxCell id="6" value="Stuido B" style="text;html=1;strokeColor=none;fillColor=none;align=center;verticalAlign=middle;whiteSpace=wrap;rounded=0;" parent="1" vertex="1">
                    <mxGeometry x="160" y="227.5" width="60" height="30" as="geometry"/>
                </mxCell>
                <mxCell id="7" value="Stuido A" style="text;html=1;strokeColor=none;fillColor=none;align=center;verticalAlign=middle;whiteSpace=wrap;rounded=0;" parent="1" vertex="1">
                    <mxGeometry x="70" y="228.5" width="60" height="30" as="geometry"/>
                </mxCell>
                <mxCell id="9" value="" style="rounded=0;whiteSpace=wrap;html=1;" parent="1" vertex="1">
                    <mxGeometry x="52" y="310" width="278" height="70" as="geometry"/>
                </mxCell>
                <mxCell id="8" value="Stuido C" style="text;html=1;strokeColor=none;fillColor=none;align=center;verticalAlign=middle;whiteSpace=wrap;rounded=0;" parent="1" vertex="1">
                    <mxGeometry x="250" y="224.75" width="60" height="37.5" as="geometry"/>
                </mxCell>
                <mxCell id="11" value="Owner Login&lt;span style=&quot;color: rgba(0, 0, 0, 0); font-family: monospace; font-size: 0px; text-align: start;&quot;&gt;%3CmxGraphModel%3E%3Croot%3E%3CmxCell%20id%3D%220%22%2F%3E%3CmxCell%20id%3D%221%22%20parent%3D%220%22%2F%3E%3CmxCell%20id%3D%222%22%20value%3D%22Owner%20Login%22%20style%3D%22text%3Bhtml%3D1%3BstrokeColor%3Dnone%3BfillColor%3Dnone%3Balign%3Dcenter%3BverticalAlign%3Dmiddle%3BwhiteSpace%3Dwrap%3Brounded%3D0%3B%22%20vertex%3D%221%22%20parent%3D%221%22%3E%3CmxGeometry%20x%3D%2290%22%20y%3D%22330%22%20width%3D%2280%22%20height%3D%2230%22%20as%3D%22geometry%22%2F%3E%3C%2FmxCell%3E%3C%2Froot%3E%3C%2FmxGraphModel%3E&lt;/span&gt;" style="rounded=0;whiteSpace=wrap;html=1;" parent="1" vertex="1">
                    <mxGeometry x="208" y="50" width="120" height="20" as="geometry"/>
                </mxCell>
                <mxCell id="12" value="Owner Register" style="rounded=0;whiteSpace=wrap;html=1;" parent="1" vertex="1">
                    <mxGeometry x="200" y="325" width="120" height="35" as="geometry"/>
                </mxCell>
                <mxCell id="14" value="User could see all the yoga studio listed here with their information &amp;amp; image&amp;nbsp;" style="shape=note;whiteSpace=wrap;html=1;backgroundOutline=1;darkOpacity=0.05;fontSize=16;size=16;fillColor=#e3c800;fontColor=#000000;strokeColor=#B09500;" parent="1" vertex="1">
                    <mxGeometry x="40" y="420" width="210" height="100" as="geometry"/>
                </mxCell>
                <mxCell id="15" value="&lt;span style=&quot;font-size: 15px;&quot;&gt;Studio owner could login or create account here.&lt;/span&gt;" style="shape=note;whiteSpace=wrap;html=1;backgroundOutline=1;darkOpacity=0.05;fontSize=16;size=16;fillColor=#e3c800;fontColor=#000000;strokeColor=#B09500;" parent="1" vertex="1">
                    <mxGeometry x="41" y="530" width="209" height="100" as="geometry"/>
                </mxCell>
                <mxCell id="W38jNCUu7FZMQDi1C7XV-27" value="" style="endArrow=classic;html=1;rounded=0;exitX=1;exitY=0.5;exitDx=0;exitDy=0;entryX=0.001;entryY=0.544;entryDx=0;entryDy=0;entryPerimeter=0;" parent="1" source="8" target="16" edge="1">
                    <mxGeometry width="50" height="50" relative="1" as="geometry">
                        <mxPoint x="340" y="199.5" as="sourcePoint"/>
                        <mxPoint x="410" y="125" as="targetPoint"/>
                    </mxGeometry>
                </mxCell>
                <mxCell id="17" value="&lt;font style=&quot;font-size: 16px;&quot;&gt;user selects a studio&lt;/font&gt;" style="edgeLabel;html=1;align=center;verticalAlign=middle;resizable=0;points=[];fontSize=20;" parent="W38jNCUu7FZMQDi1C7XV-27" vertex="1" connectable="0">
                    <mxGeometry x="0.0892" y="2" relative="1" as="geometry">
                        <mxPoint as="offset"/>
                    </mxGeometry>
                </mxCell>
                <mxCell id="18" value="Send Request" style="rounded=0;whiteSpace=wrap;html=1;fontSize=10;" parent="1" vertex="1">
                    <mxGeometry x="738.75" y="231.75" width="90" height="30" as="geometry"/>
                </mxCell>
                <mxCell id="19" value="&lt;meta charset=&quot;utf-8&quot;&gt;&lt;span style=&quot;color: rgb(240, 240, 240); font-family: Helvetica; font-size: 12px; font-style: normal; font-variant-ligatures: normal; font-variant-caps: normal; font-weight: 400; letter-spacing: normal; orphans: 2; text-indent: 0px; text-transform: none; widows: 2; word-spacing: 0px; -webkit-text-stroke-width: 0px; background-color: rgb(42, 37, 47); text-decoration-thickness: initial; text-decoration-style: initial; text-decoration-color: initial; float: none; display: inline !important;&quot;&gt;Booking Request Form&lt;/span&gt;" style="text;whiteSpace=wrap;html=1;fontSize=10;align=center;" parent="1" vertex="1">
                    <mxGeometry x="738.75" y="181.75" width="85" height="30" as="geometry"/>
                </mxCell>
                <mxCell id="21" value="User could see the yoga studio detailed information and send a book request here." style="shape=note;whiteSpace=wrap;html=1;backgroundOutline=1;darkOpacity=0.05;fontSize=16;size=16;fillColor=#e3c800;fontColor=#000000;strokeColor=#B09500;" parent="1" vertex="1">
                    <mxGeometry x="580" y="430" width="240" height="100" as="geometry"/>
                </mxCell>
                <mxCell id="22" value="" style="endArrow=classic;html=1;fontSize=10;exitX=1;exitY=0.5;exitDx=0;exitDy=0;" parent="1" source="18" edge="1">
                    <mxGeometry width="50" height="50" relative="1" as="geometry">
                        <mxPoint x="910" y="260" as="sourcePoint"/>
                        <mxPoint x="1150" y="247" as="targetPoint"/>
                    </mxGeometry>
                </mxCell>
                <mxCell id="24" value="&lt;font style=&quot;font-size: 16px;&quot;&gt;user sends a booking request&lt;br style=&quot;&quot;&gt;to studio owner&lt;/font&gt;" style="edgeLabel;html=1;align=center;verticalAlign=middle;resizable=0;points=[];fontSize=11;" parent="22" vertex="1" connectable="0">
                    <mxGeometry x="-0.0883" y="2" relative="1" as="geometry">
                        <mxPoint x="16" y="2" as="offset"/>
                    </mxGeometry>
                </mxCell>
                <mxCell id="26" value="Booking" style="text;html=1;strokeColor=none;fillColor=none;align=left;verticalAlign=middle;whiteSpace=wrap;rounded=0;fontSize=25;fontStyle=1" parent="1" vertex="1">
                    <mxGeometry x="40" y="-182" width="200" height="30" as="geometry"/>
                </mxCell>
                <mxCell id="28" value="Owner Register" style="text;html=1;strokeColor=none;fillColor=none;align=center;verticalAlign=middle;whiteSpace=wrap;rounded=0;fontSize=25;fontStyle=1" parent="1" vertex="1">
                    <mxGeometry x="40" y="700" width="200" height="30" as="geometry"/>
                </mxCell>
                <mxCell id="29" value="Owner Login" style="text;html=1;strokeColor=none;fillColor=none;align=left;verticalAlign=middle;whiteSpace=wrap;rounded=0;fontSize=25;fontStyle=1" parent="1" vertex="1">
                    <mxGeometry x="50" y="1420" width="200" height="30" as="geometry"/>
                </mxCell>
                <mxCell id="30" value="" style="rounded=0;whiteSpace=wrap;html=1;" parent="1" vertex="1">
                    <mxGeometry x="1150" y="38.62" width="410" height="370" as="geometry"/>
                </mxCell>
                <mxCell id="31" value="" style="ellipse;whiteSpace=wrap;html=1;aspect=fixed;" parent="1" vertex="1">
                    <mxGeometry x="1174.25" y="80" width="35" height="35" as="geometry"/>
                </mxCell>
                <mxCell id="32" value="" style="rounded=0;whiteSpace=wrap;html=1;" parent="1" vertex="1">
                    <mxGeometry x="1230" y="59" width="320" height="61" as="geometry"/>
                </mxCell>
                <mxCell id="33" value="Booking Request" style="rounded=0;whiteSpace=wrap;html=1;fillColor=#76608a;fontColor=#ffffff;strokeColor=#432D57;" parent="1" vertex="1">
                    <mxGeometry x="1174.25" y="160.5" width="55.75" height="61" as="geometry"/>
                </mxCell>
                <mxCell id="34" value="Update Studio Info" style="rounded=0;whiteSpace=wrap;html=1;" parent="1" vertex="1">
                    <mxGeometry x="1174.25" y="249" width="55.75" height="61" as="geometry"/>
                </mxCell>
                <mxCell id="36" value="Pending" style="rounded=0;whiteSpace=wrap;html=1;fontSize=10;fillColor=#76608a;fontColor=#ffffff;strokeColor=#432D57;" parent="1" vertex="1">
                    <mxGeometry x="1240" y="140.5" width="70" height="20" as="geometry"/>
                </mxCell>
                <mxCell id="37" value="Waiting for Payment" style="rounded=0;whiteSpace=wrap;html=1;fontSize=10;" parent="1" vertex="1">
                    <mxGeometry x="1320" y="140" width="70" height="20.5" as="geometry"/>
                </mxCell>
                <mxCell id="38" value="Approved" style="rounded=0;whiteSpace=wrap;html=1;fontSize=10;" parent="1" vertex="1">
                    <mxGeometry x="1400" y="140" width="70" height="20.5" as="geometry"/>
                </mxCell>
                <mxCell id="39" value="Reject" style="rounded=0;whiteSpace=wrap;html=1;fontSize=10;" parent="1" vertex="1">
                    <mxGeometry x="1480" y="140.5" width="70" height="20.5" as="geometry"/>
                </mxCell>
                <mxCell id="40" value="The new booking request will appear in booking request &amp;gt; Pending.&amp;nbsp;" style="shape=note;whiteSpace=wrap;html=1;backgroundOutline=1;darkOpacity=0.05;fontSize=16;size=16;fillColor=#e3c800;fontColor=#000000;strokeColor=#B09500;" parent="1" vertex="1">
                    <mxGeometry x="1079.25" y="420" width="240" height="100" as="geometry"/>
                </mxCell>
                <mxCell id="41" value="Studio owner reviews the request and respond to it by either selecting &quot;Accept&quot; or &quot;Reject&quot; the booking." style="shape=note;whiteSpace=wrap;html=1;backgroundOutline=1;darkOpacity=0.05;fontSize=16;size=16;fillColor=#e3c800;fontColor=#000000;strokeColor=#B09500;" parent="1" vertex="1">
                    <mxGeometry x="1359.25" y="420" width="240" height="100" as="geometry"/>
                </mxCell>
                <mxCell id="p8MQolTtLwwHdf918yn9-41" value="Studio owner will communicate with the user offline. After the owner recieves the payment, they could click &quot;Approved&quot;. The booking will now go to the &quot;Approved&quot; tab." style="shape=note;whiteSpace=wrap;html=1;backgroundOutline=1;darkOpacity=0.05;fontSize=16;size=16;fillColor=#e3c800;fontColor=#000000;strokeColor=#B09500;" parent="1" vertex="1">
                    <mxGeometry x="1950.75" y="667.5" width="280" height="100" as="geometry"/>
                </mxCell>
                <mxCell id="p8MQolTtLwwHdf918yn9-42" value="Accepted booking will go to &quot;Waiting for payment&quot; tab.&lt;br&gt;&lt;br&gt;Rejected booking will go to &quot;Rejected&quot; tab." style="shape=note;whiteSpace=wrap;html=1;backgroundOutline=1;darkOpacity=0.05;fontSize=16;size=16;fillColor=#e3c800;fontColor=#000000;strokeColor=#B09500;" parent="1" vertex="1">
                    <mxGeometry x="1650" y="662.5" width="240" height="100" as="geometry"/>
                </mxCell>
                <mxCell id="p8MQolTtLwwHdf918yn9-43" value="Booking Request&amp;nbsp;" style="rounded=0;whiteSpace=wrap;html=1;fontSize=10;align=left;" parent="1" vertex="1">
                    <mxGeometry x="1240" y="166.75" width="300" height="63.25" as="geometry"/>
                </mxCell>
                <mxCell id="p8MQolTtLwwHdf918yn9-45" value="Accept" style="rounded=0;whiteSpace=wrap;html=1;fontSize=10;" parent="1" vertex="1">
                    <mxGeometry x="1460" y="176" width="60" height="20" as="geometry"/>
                </mxCell>
                <mxCell id="p8MQolTtLwwHdf918yn9-46" value="Reject" style="rounded=0;whiteSpace=wrap;html=1;fontSize=10;" parent="1" vertex="1">
                    <mxGeometry x="1460" y="200" width="60" height="20" as="geometry"/>
                </mxCell>
                <mxCell id="p8MQolTtLwwHdf918yn9-47" value="" style="endArrow=classic;html=1;fontSize=10;exitX=1;exitY=0.5;exitDx=0;exitDy=0;" parent="1" source="p8MQolTtLwwHdf918yn9-45" edge="1">
                    <mxGeometry width="50" height="50" relative="1" as="geometry">
                        <mxPoint x="1550" y="290" as="sourcePoint"/>
                        <mxPoint x="1710" y="160" as="targetPoint"/>
                    </mxGeometry>
                </mxCell>
                <mxCell id="p8MQolTtLwwHdf918yn9-49" value="Accept booking" style="edgeLabel;html=1;align=center;verticalAlign=middle;resizable=0;points=[];fontSize=16;" parent="p8MQolTtLwwHdf918yn9-47" vertex="1" connectable="0">
                    <mxGeometry x="0.1013" y="-1" relative="1" as="geometry">
                        <mxPoint as="offset"/>
                    </mxGeometry>
                </mxCell>
                <mxCell id="p8MQolTtLwwHdf918yn9-48" value="" style="endArrow=classic;html=1;fontSize=10;exitX=1;exitY=0.5;exitDx=0;exitDy=0;" parent="1" source="p8MQolTtLwwHdf918yn9-46" edge="1">
                    <mxGeometry width="50" height="50" relative="1" as="geometry">
                        <mxPoint x="1550" y="290" as="sourcePoint"/>
                        <mxPoint x="1690" y="370" as="targetPoint"/>
                    </mxGeometry>
                </mxCell>
                <mxCell id="p8MQolTtLwwHdf918yn9-50" value="Reject booking" style="edgeLabel;html=1;align=center;verticalAlign=middle;resizable=0;points=[];fontSize=16;" parent="p8MQolTtLwwHdf918yn9-48" vertex="1" connectable="0">
                    <mxGeometry x="0.1025" y="2" relative="1" as="geometry">
                        <mxPoint as="offset"/>
                    </mxGeometry>
                </mxCell>
                <mxCell id="p8MQolTtLwwHdf918yn9-63" value="" style="group;fillColor=none;" parent="1" vertex="1" connectable="0">
                    <mxGeometry x="1715" y="-120" width="410" height="370" as="geometry"/>
                </mxCell>
                <mxCell id="p8MQolTtLwwHdf918yn9-62" value="" style="rounded=0;whiteSpace=wrap;html=1;" parent="p8MQolTtLwwHdf918yn9-63" vertex="1">
                    <mxGeometry width="410" height="370" as="geometry"/>
                </mxCell>
                <mxCell id="p8MQolTtLwwHdf918yn9-51" value="" style="ellipse;whiteSpace=wrap;html=1;aspect=fixed;" parent="p8MQolTtLwwHdf918yn9-63" vertex="1">
                    <mxGeometry x="24.25" y="51" width="35" height="35" as="geometry"/>
                </mxCell>
                <mxCell id="p8MQolTtLwwHdf918yn9-52" value="&lt;span style=&quot;color: rgba(0, 0, 0, 0); font-family: monospace; font-size: 0px; text-align: start;&quot;&gt;%3CmxGraphModel%3E%3Croot%3E%3CmxCell%20id%3D%220%22%2F%3E%3CmxCell%20id%3D%221%22%20parent%3D%220%22%2F%3E%3CmxCell%20id%3D%222%22%20value%3D%22%22%20style%3D%22group%3BfillColor%3Dnone%3B%22%20vertex%3D%221%22%20connectable%3D%220%22%20parent%3D%221%22%3E%3CmxGeometry%20x%3D%221715%22%20y%3D%22-120%22%20width%3D%22410%22%20height%3D%22370%22%20as%3D%22geometry%22%2F%3E%3C%2FmxCell%3E%3CmxCell%20id%3D%223%22%20value%3D%22%22%20style%3D%22rounded%3D0%3BwhiteSpace%3Dwrap%3Bhtml%3D1%3B%22%20vertex%3D%221%22%20parent%3D%222%22%3E%3CmxGeometry%20width%3D%22410%22%20height%3D%22370%22%20as%3D%22geometry%22%2F%3E%3C%2FmxCell%3E%3CmxCell%20id%3D%224%22%20value%3D%22%22%20style%3D%22ellipse%3BwhiteSpace%3Dwrap%3Bhtml%3D1%3Baspect%3Dfixed%3B%22%20vertex%3D%221%22%20parent%3D%222%22%3E%3CmxGeometry%20x%3D%2224.25%22%20y%3D%2251%22%20width%3D%2235%22%20height%3D%2235%22%20as%3D%22geometry%22%2F%3E%3C%2FmxCell%3E%3CmxCell%20id%3D%225%22%20value%3D%22%22%20style%3D%22rounded%3D0%3BwhiteSpace%3Dwrap%3Bhtml%3D1%3B%22%20vertex%3D%221%22%20parent%3D%222%22%3E%3CmxGeometry%20x%3D%2280%22%20y%3D%2230%22%20width%3D%22320%22%20height%3D%2261%22%20as%3D%22geometry%22%2F%3E%3C%2FmxCell%3E%3CmxCell%20id%3D%226%22%20value%3D%22Booking%20Request%22%20style%3D%22rounded%3D0%3BwhiteSpace%3Dwrap%3Bhtml%3D1%3BfillColor%3D%2376608a%3BfontColor%3D%23ffffff%3BstrokeColor%3D%23432D57%3B%22%20vertex%3D%221%22%20parent%3D%222%22%3E%3CmxGeometry%20x%3D%2224.25%22%20y%3D%22131.5%22%20width%3D%2255.75%22%20height%3D%2261%22%20as%3D%22geometry%22%2F%3E%3C%2FmxCell%3E%3CmxCell%20id%3D%227%22%20value%3D%22Update%20Studio%20Info%22%20style%3D%22rounded%3D0%3BwhiteSpace%3Dwrap%3Bhtml%3D1%3B%22%20vertex%3D%221%22%20parent%3D%222%22%3E%3CmxGeometry%20x%3D%2224.25%22%20y%3D%22220%22%20width%3D%2255.75%22%20height%3D%2261%22%20as%3D%22geometry%22%2F%3E%3C%2FmxCell%3E%3CmxCell%20id%3D%228%22%20value%3D%22Pending%22%20style%3D%22rounded%3D0%3BwhiteSpace%3Dwrap%3Bhtml%3D1%3BfontSize%3D10%3BfillColor%3Dnone%3B%22%20vertex%3D%221%22%20parent%3D%222%22%3E%3CmxGeometry%20x%3D%2290%22%20y%3D%22111.5%22%20width%3D%2270%22%20height%3D%2220%22%20as%3D%22geometry%22%2F%3E%3C%2FmxCell%3E%3CmxCell%20id%3D%229%22%20value%3D%22Waiting%20for%20Payment%22%20style%3D%22rounded%3D0%3BwhiteSpace%3Dwrap%3Bhtml%3D1%3BfontSize%3D10%3BfillColor%3D%2376608A%3BstrokeColor%3D%237b7099%3BfontColor%3D%23ffffff%3BgradientColor%3Dnone%3B%22%20vertex%3D%221%22%20parent%3D%222%22%3E%3CmxGeometry%20x%3D%22170%22%20y%3D%22111%22%20width%3D%2270%22%20height%3D%2220.5%22%20as%3D%22geometry%22%2F%3E%3C%2FmxCell%3E%3CmxCell%20id%3D%2210%22%20value%3D%22Approved%22%20style%3D%22rounded%3D0%3BwhiteSpace%3Dwrap%3Bhtml%3D1%3BfontSize%3D10%3B%22%20vertex%3D%221%22%20parent%3D%222%22%3E%3CmxGeometry%20x%3D%22250%22%20y%3D%22111%22%20width%3D%2270%22%20height%3D%2220.5%22%20as%3D%22geometry%22%2F%3E%3C%2FmxCell%3E%3CmxCell%20id%3D%2211%22%20value%3D%22Reject%22%20style%3D%22rounded%3D0%3BwhiteSpace%3Dwrap%3Bhtml%3D1%3BfontSize%3D10%3B%22%20vertex%3D%221%22%20parent%3D%222%22%3E%3CmxGeometry%20x%3D%22330%22%20y%3D%22111.5%22%20width%3D%2270%22%20height%3D%2220.5%22%20as%3D%22geometry%22%2F%3E%3C%2FmxCell%3E%3CmxCell%20id%3D%2212%22%20value%3D%22Booking%20Request%26amp%3Bnbsp%3B%22%20style%3D%22rounded%3D0%3BwhiteSpace%3Dwrap%3Bhtml%3D1%3BfontSize%3D10%3Balign%3Dleft%3B%22%20vertex%3D%221%22%20parent%3D%222%22%3E%3CmxGeometry%20x%3D%2290%22%20y%3D%22137.75%22%20width%3D%22300%22%20height%3D%2263.25%22%20as%3D%22geometry%22%2F%3E%3C%2FmxCell%3E%3CmxCell%20id%3D%2213%22%20value%3D%22Approved%22%20style%3D%22rounded%3D0%3BwhiteSpace%3Dwrap%3Bhtml%3D1%3BfontSize%3D10%3B%22%20vertex%3D%221%22%20parent%3D%222%22%3E%3CmxGeometry%20x%3D%22310%22%20y%3D%22147%22%20width%3D%2260%22%20height%3D%2220%22%20as%3D%22geometry%22%2F%3E%3C%2FmxCell%3E%3CmxCell%20id%3D%2214%22%20value%3D%22Reject%22%20style%3D%22rounded%3D0%3BwhiteSpace%3Dwrap%3Bhtml%3D1%3BfontSize%3D10%3B%22%20vertex%3D%221%22%20parent%3D%222%22%3E%3CmxGeometry%20x%3D%22310%22%20y%3D%22171%22%20width%3D%2260%22%20height%3D%2220%22%20as%3D%22geometry%22%2F%3E%3C%2FmxCell%3E%3C%2Froot%3E%3C%2FmxGraphModel%3E&lt;/span&gt;" style="rounded=0;whiteSpace=wrap;html=1;" parent="p8MQolTtLwwHdf918yn9-63" vertex="1">
                    <mxGeometry x="80" y="30" width="320" height="61" as="geometry"/>
                </mxCell>
                <mxCell id="p8MQolTtLwwHdf918yn9-53" value="Booking Request" style="rounded=0;whiteSpace=wrap;html=1;fillColor=#76608a;fontColor=#ffffff;strokeColor=#432D57;" parent="p8MQolTtLwwHdf918yn9-63" vertex="1">
                    <mxGeometry x="24.25" y="131.5" width="55.75" height="61" as="geometry"/>
                </mxCell>
                <mxCell id="p8MQolTtLwwHdf918yn9-54" value="Update Studio Info" style="rounded=0;whiteSpace=wrap;html=1;" parent="p8MQolTtLwwHdf918yn9-63" vertex="1">
                    <mxGeometry x="24.25" y="220" width="55.75" height="61" as="geometry"/>
                </mxCell>
                <mxCell id="p8MQolTtLwwHdf918yn9-55" value="Pending" style="rounded=0;whiteSpace=wrap;html=1;fontSize=10;fillColor=none;" parent="p8MQolTtLwwHdf918yn9-63" vertex="1">
                    <mxGeometry x="90" y="111.5" width="70" height="20" as="geometry"/>
                </mxCell>
                <mxCell id="p8MQolTtLwwHdf918yn9-56" value="Waiting for Payment" style="rounded=0;whiteSpace=wrap;html=1;fontSize=10;fillColor=#76608A;strokeColor=#7b7099;fontColor=#ffffff;gradientColor=none;" parent="p8MQolTtLwwHdf918yn9-63" vertex="1">
                    <mxGeometry x="170" y="111" width="70" height="20.5" as="geometry"/>
                </mxCell>
                <mxCell id="p8MQolTtLwwHdf918yn9-57" value="Approved" style="rounded=0;whiteSpace=wrap;html=1;fontSize=10;" parent="p8MQolTtLwwHdf918yn9-63" vertex="1">
                    <mxGeometry x="250" y="111" width="70" height="20.5" as="geometry"/>
                </mxCell>
                <mxCell id="p8MQolTtLwwHdf918yn9-58" value="Reject" style="rounded=0;whiteSpace=wrap;html=1;fontSize=10;" parent="p8MQolTtLwwHdf918yn9-63" vertex="1">
                    <mxGeometry x="330" y="111.5" width="70" height="20.5" as="geometry"/>
                </mxCell>
                <mxCell id="p8MQolTtLwwHdf918yn9-59" value="Booking Request&amp;nbsp;" style="rounded=0;whiteSpace=wrap;html=1;fontSize=10;align=left;" parent="p8MQolTtLwwHdf918yn9-63" vertex="1">
                    <mxGeometry x="90" y="137.75" width="300" height="63.25" as="geometry"/>
                </mxCell>
                <mxCell id="p8MQolTtLwwHdf918yn9-60" value="Approved" style="rounded=0;whiteSpace=wrap;html=1;fontSize=10;" parent="p8MQolTtLwwHdf918yn9-63" vertex="1">
                    <mxGeometry x="310" y="147" width="60" height="20" as="geometry"/>
                </mxCell>
                <mxCell id="p8MQolTtLwwHdf918yn9-61" value="Reject" style="rounded=0;whiteSpace=wrap;html=1;fontSize=10;" parent="p8MQolTtLwwHdf918yn9-63" vertex="1">
                    <mxGeometry x="310" y="171" width="60" height="20" as="geometry"/>
                </mxCell>
                <mxCell id="p8MQolTtLwwHdf918yn9-65" value="" style="endArrow=classic;html=1;fontSize=10;exitX=1.001;exitY=0.515;exitDx=0;exitDy=0;exitPerimeter=0;entryX=0;entryY=0.5;entryDx=0;entryDy=0;entryPerimeter=0;" parent="1" source="40" target="41" edge="1">
                    <mxGeometry width="50" height="50" relative="1" as="geometry">
                        <mxPoint x="1399.25" y="520" as="sourcePoint"/>
                        <mxPoint x="1449.25" y="470" as="targetPoint"/>
                    </mxGeometry>
                </mxCell>
                <mxCell id="p8MQolTtLwwHdf918yn9-66" value="" style="rounded=0;whiteSpace=wrap;html=1;" parent="1" vertex="1">
                    <mxGeometry x="1710" y="271.25" width="410" height="370" as="geometry"/>
                </mxCell>
                <mxCell id="p8MQolTtLwwHdf918yn9-67" value="" style="ellipse;whiteSpace=wrap;html=1;aspect=fixed;" parent="1" vertex="1">
                    <mxGeometry x="1734.25" y="322.25" width="35" height="35" as="geometry"/>
                </mxCell>
                <mxCell id="p8MQolTtLwwHdf918yn9-68" value="" style="rounded=0;whiteSpace=wrap;html=1;" parent="1" vertex="1">
                    <mxGeometry x="1790" y="301.25" width="320" height="61" as="geometry"/>
                </mxCell>
                <mxCell id="p8MQolTtLwwHdf918yn9-69" value="Booking Request" style="rounded=0;whiteSpace=wrap;html=1;fillColor=#76608a;fontColor=#ffffff;strokeColor=#432D57;" parent="1" vertex="1">
                    <mxGeometry x="1734.25" y="402.75" width="55.75" height="61" as="geometry"/>
                </mxCell>
                <mxCell id="p8MQolTtLwwHdf918yn9-70" value="Update Studio Info" style="rounded=0;whiteSpace=wrap;html=1;" parent="1" vertex="1">
                    <mxGeometry x="1734.25" y="491.25" width="55.75" height="61" as="geometry"/>
                </mxCell>
                <mxCell id="p8MQolTtLwwHdf918yn9-71" value="Pending" style="rounded=0;whiteSpace=wrap;html=1;fontSize=10;fillColor=none;" parent="1" vertex="1">
                    <mxGeometry x="1800" y="382.75" width="70" height="20" as="geometry"/>
                </mxCell>
                <mxCell id="p8MQolTtLwwHdf918yn9-72" value="Waiting for Payment" style="rounded=0;whiteSpace=wrap;html=1;fontSize=10;fillColor=none;" parent="1" vertex="1">
                    <mxGeometry x="1880" y="382.25" width="70" height="20.5" as="geometry"/>
                </mxCell>
                <mxCell id="p8MQolTtLwwHdf918yn9-73" value="Approved" style="rounded=0;whiteSpace=wrap;html=1;fontSize=10;" parent="1" vertex="1">
                    <mxGeometry x="1960" y="382.25" width="70" height="20.5" as="geometry"/>
                </mxCell>
                <mxCell id="p8MQolTtLwwHdf918yn9-74" value="Reject" style="rounded=0;whiteSpace=wrap;html=1;fontSize=10;fillColor=#76608A;fontColor=#ffffff;strokeColor=#603cc3;" parent="1" vertex="1">
                    <mxGeometry x="2040" y="382.75" width="70" height="20.5" as="geometry"/>
                </mxCell>
                <mxCell id="p8MQolTtLwwHdf918yn9-75" value="Booking Request&amp;nbsp;" style="rounded=0;whiteSpace=wrap;html=1;fontSize=10;align=left;" parent="1" vertex="1">
                    <mxGeometry x="1800" y="409" width="310" height="63.25" as="geometry"/>
                </mxCell>
                <mxCell id="p8MQolTtLwwHdf918yn9-78" value="" style="endArrow=classic;html=1;fontSize=10;exitX=0;exitY=0;exitDx=240;exitDy=58;exitPerimeter=0;entryX=-0.001;entryY=0.527;entryDx=0;entryDy=0;entryPerimeter=0;" parent="1" source="p8MQolTtLwwHdf918yn9-42" target="p8MQolTtLwwHdf918yn9-41" edge="1">
                    <mxGeometry width="50" height="50" relative="1" as="geometry">
                        <mxPoint x="1950.75" y="552.5" as="sourcePoint"/>
                        <mxPoint x="2000.75" y="502.5" as="targetPoint"/>
                    </mxGeometry>
                </mxCell>
                <mxCell id="p8MQolTtLwwHdf918yn9-79" value="" style="endArrow=classic;html=1;fontSize=10;exitX=1;exitY=0.5;exitDx=0;exitDy=0;entryX=-0.002;entryY=0.436;entryDx=0;entryDy=0;entryPerimeter=0;" parent="1" source="p8MQolTtLwwHdf918yn9-60" target="p8MQolTtLwwHdf918yn9-81" edge="1">
                    <mxGeometry width="50" height="50" relative="1" as="geometry">
                        <mxPoint x="2160" y="59" as="sourcePoint"/>
                        <mxPoint x="2280" y="40" as="targetPoint"/>
                    </mxGeometry>
                </mxCell>
                <mxCell id="p8MQolTtLwwHdf918yn9-80" value="&lt;font style=&quot;font-size: 16px;&quot;&gt;Recieve Payment &lt;br&gt;and Approved&lt;/font&gt;" style="edgeLabel;html=1;align=center;verticalAlign=middle;resizable=0;points=[];fontSize=10;" parent="p8MQolTtLwwHdf918yn9-79" vertex="1" connectable="0">
                    <mxGeometry x="0.1013" y="-1" relative="1" as="geometry">
                        <mxPoint as="offset"/>
                    </mxGeometry>
                </mxCell>
                <mxCell id="p8MQolTtLwwHdf918yn9-81" value="" style="rounded=0;whiteSpace=wrap;html=1;" parent="1" vertex="1">
                    <mxGeometry x="2320" y="-125" width="410" height="370" as="geometry"/>
                </mxCell>
                <mxCell id="p8MQolTtLwwHdf918yn9-82" value="" style="ellipse;whiteSpace=wrap;html=1;aspect=fixed;" parent="1" vertex="1">
                    <mxGeometry x="2344.25" y="-74" width="35" height="35" as="geometry"/>
                </mxCell>
                <mxCell id="p8MQolTtLwwHdf918yn9-83" value="Booking Request" style="rounded=0;whiteSpace=wrap;html=1;fillColor=#76608a;fontColor=#ffffff;strokeColor=#432D57;" parent="1" vertex="1">
                    <mxGeometry x="2344.25" y="6.5" width="55.75" height="61" as="geometry"/>
                </mxCell>
                <mxCell id="p8MQolTtLwwHdf918yn9-84" value="Update Studio Info" style="rounded=0;whiteSpace=wrap;html=1;" parent="1" vertex="1">
                    <mxGeometry x="2344.25" y="95" width="55.75" height="61" as="geometry"/>
                </mxCell>
                <mxCell id="p8MQolTtLwwHdf918yn9-85" value="Pending" style="rounded=0;whiteSpace=wrap;html=1;fontSize=10;fillColor=none;" parent="1" vertex="1">
                    <mxGeometry x="2410" y="-13.5" width="70" height="20" as="geometry"/>
                </mxCell>
                <mxCell id="p8MQolTtLwwHdf918yn9-86" value="Waiting for Payment" style="rounded=0;whiteSpace=wrap;html=1;fontSize=10;fillColor=none;" parent="1" vertex="1">
                    <mxGeometry x="2490" y="-14" width="70" height="20.5" as="geometry"/>
                </mxCell>
                <mxCell id="p8MQolTtLwwHdf918yn9-87" value="Approved" style="rounded=0;whiteSpace=wrap;html=1;fontSize=10;fillColor=#76608A;" parent="1" vertex="1">
                    <mxGeometry x="2570" y="-14" width="70" height="20.5" as="geometry"/>
                </mxCell>
                <mxCell id="p8MQolTtLwwHdf918yn9-88" value="Reject" style="rounded=0;whiteSpace=wrap;html=1;fontSize=10;fillColor=none;" parent="1" vertex="1">
                    <mxGeometry x="2650" y="-13.5" width="70" height="20.5" as="geometry"/>
                </mxCell>
                <mxCell id="p8MQolTtLwwHdf918yn9-89" value="Booking Request&amp;nbsp;" style="rounded=0;whiteSpace=wrap;html=1;fontSize=10;align=left;" parent="1" vertex="1">
                    <mxGeometry x="2410" y="12.75" width="310" height="63.25" as="geometry"/>
                </mxCell>
                <mxCell id="p8MQolTtLwwHdf918yn9-103" value="&lt;span style=&quot;color: rgba(0, 0, 0, 0); font-family: monospace; font-size: 0px; text-align: start;&quot;&gt;%3CmxGraphModel%3E%3Croot%3E%3CmxCell%20id%3D%220%22%2F%3E%3CmxCell%20id%3D%221%22%20parent%3D%220%22%2F%3E%3CmxCell%20id%3D%222%22%20value%3D%22%22%20style%3D%22group%3BfillColor%3Dnone%3B%22%20vertex%3D%221%22%20connectable%3D%220%22%20parent%3D%221%22%3E%3CmxGeometry%20x%3D%221715%22%20y%3D%22-120%22%20width%3D%22410%22%20height%3D%22370%22%20as%3D%22geometry%22%2F%3E%3C%2FmxCell%3E%3CmxCell%20id%3D%223%22%20value%3D%22%22%20style%3D%22rounded%3D0%3BwhiteSpace%3Dwrap%3Bhtml%3D1%3B%22%20vertex%3D%221%22%20parent%3D%222%22%3E%3CmxGeometry%20width%3D%22410%22%20height%3D%22370%22%20as%3D%22geometry%22%2F%3E%3C%2FmxCell%3E%3CmxCell%20id%3D%224%22%20value%3D%22%22%20style%3D%22ellipse%3BwhiteSpace%3Dwrap%3Bhtml%3D1%3Baspect%3Dfixed%3B%22%20vertex%3D%221%22%20parent%3D%222%22%3E%3CmxGeometry%20x%3D%2224.25%22%20y%3D%2251%22%20width%3D%2235%22%20height%3D%2235%22%20as%3D%22geometry%22%2F%3E%3C%2FmxCell%3E%3CmxCell%20id%3D%225%22%20value%3D%22%22%20style%3D%22rounded%3D0%3BwhiteSpace%3Dwrap%3Bhtml%3D1%3B%22%20vertex%3D%221%22%20parent%3D%222%22%3E%3CmxGeometry%20x%3D%2280%22%20y%3D%2230%22%20width%3D%22320%22%20height%3D%2261%22%20as%3D%22geometry%22%2F%3E%3C%2FmxCell%3E%3CmxCell%20id%3D%226%22%20value%3D%22Booking%20Request%22%20style%3D%22rounded%3D0%3BwhiteSpace%3Dwrap%3Bhtml%3D1%3BfillColor%3D%2376608a%3BfontColor%3D%23ffffff%3BstrokeColor%3D%23432D57%3B%22%20vertex%3D%221%22%20parent%3D%222%22%3E%3CmxGeometry%20x%3D%2224.25%22%20y%3D%22131.5%22%20width%3D%2255.75%22%20height%3D%2261%22%20as%3D%22geometry%22%2F%3E%3C%2FmxCell%3E%3CmxCell%20id%3D%227%22%20value%3D%22Update%20Studio%20Info%22%20style%3D%22rounded%3D0%3BwhiteSpace%3Dwrap%3Bhtml%3D1%3B%22%20vertex%3D%221%22%20parent%3D%222%22%3E%3CmxGeometry%20x%3D%2224.25%22%20y%3D%22220%22%20width%3D%2255.75%22%20height%3D%2261%22%20as%3D%22geometry%22%2F%3E%3C%2FmxCell%3E%3CmxCell%20id%3D%228%22%20value%3D%22Pending%22%20style%3D%22rounded%3D0%3BwhiteSpace%3Dwrap%3Bhtml%3D1%3BfontSize%3D10%3BfillColor%3Dnone%3B%22%20vertex%3D%221%22%20parent%3D%222%22%3E%3CmxGeometry%20x%3D%2290%22%20y%3D%22111.5%22%20width%3D%2270%22%20height%3D%2220%22%20as%3D%22geometry%22%2F%3E%3C%2FmxCell%3E%3CmxCell%20id%3D%229%22%20value%3D%22Waiting%20for%20Payment%22%20style%3D%22rounded%3D0%3BwhiteSpace%3Dwrap%3Bhtml%3D1%3BfontSize%3D10%3BfillColor%3D%2376608A%3BstrokeColor%3D%237b7099%3BfontColor%3D%23ffffff%3BgradientColor%3Dnone%3B%22%20vertex%3D%221%22%20parent%3D%222%22%3E%3CmxGeometry%20x%3D%22170%22%20y%3D%22111%22%20width%3D%2270%22%20height%3D%2220.5%22%20as%3D%22geometry%22%2F%3E%3C%2FmxCell%3E%3CmxCell%20id%3D%2210%22%20value%3D%22Approved%22%20style%3D%22rounded%3D0%3BwhiteSpace%3Dwrap%3Bhtml%3D1%3BfontSize%3D10%3B%22%20vertex%3D%221%22%20parent%3D%222%22%3E%3CmxGeometry%20x%3D%22250%22%20y%3D%22111%22%20width%3D%2270%22%20height%3D%2220.5%22%20as%3D%22geometry%22%2F%3E%3C%2FmxCell%3E%3CmxCell%20id%3D%2211%22%20value%3D%22Reject%22%20style%3D%22rounded%3D0%3BwhiteSpace%3Dwrap%3Bhtml%3D1%3BfontSize%3D10%3B%22%20vertex%3D%221%22%20parent%3D%222%22%3E%3CmxGeometry%20x%3D%22330%22%20y%3D%22111.5%22%20width%3D%2270%22%20height%3D%2220.5%22%20as%3D%22geometry%22%2F%3E%3C%2FmxCell%3E%3CmxCell%20id%3D%2212%22%20value%3D%22Booking%20Request%26amp%3Bnbsp%3B%22%20style%3D%22rounded%3D0%3BwhiteSpace%3Dwrap%3Bhtml%3D1%3BfontSize%3D10%3Balign%3Dleft%3B%22%20vertex%3D%221%22%20parent%3D%222%22%3E%3CmxGeometry%20x%3D%2290%22%20y%3D%22137.75%22%20width%3D%22300%22%20height%3D%2263.25%22%20as%3D%22geometry%22%2F%3E%3C%2FmxCell%3E%3CmxCell%20id%3D%2213%22%20value%3D%22Approved%22%20style%3D%22rounded%3D0%3BwhiteSpace%3Dwrap%3Bhtml%3D1%3BfontSize%3D10%3B%22%20vertex%3D%221%22%20parent%3D%222%22%3E%3CmxGeometry%20x%3D%22310%22%20y%3D%22147%22%20width%3D%2260%22%20height%3D%2220%22%20as%3D%22geometry%22%2F%3E%3C%2FmxCell%3E%3CmxCell%20id%3D%2214%22%20value%3D%22Reject%22%20style%3D%22rounded%3D0%3BwhiteSpace%3Dwrap%3Bhtml%3D1%3BfontSize%3D10%3B%22%20vertex%3D%221%22%20parent%3D%222%22%3E%3CmxGeometry%20x%3D%22310%22%20y%3D%22171%22%20width%3D%2260%22%20height%3D%2220%22%20as%3D%22geometry%22%2F%3E%3C%2FmxCell%3E%3C%2Froot%3E%3C%2FmxGraphModel%3E&lt;/span&gt;" style="rounded=0;whiteSpace=wrap;html=1;" parent="1" vertex="1">
                    <mxGeometry x="2410" y="-100" width="320" height="61" as="geometry"/>
                </mxCell>
                <mxCell id="p8MQolTtLwwHdf918yn9-106" value="" style="rounded=0;whiteSpace=wrap;html=1;" parent="1" vertex="1">
                    <mxGeometry x="35" y="850" width="310" height="370" as="geometry"/>
                </mxCell>
                <mxCell id="p8MQolTtLwwHdf918yn9-109" value="" style="rounded=0;whiteSpace=wrap;html=1;" parent="1" vertex="1">
                    <mxGeometry x="130" y="957.5" width="170" height="20" as="geometry"/>
                </mxCell>
                <mxCell id="p8MQolTtLwwHdf918yn9-110" value="" style="rounded=0;whiteSpace=wrap;html=1;" parent="1" vertex="1">
                    <mxGeometry x="130" y="990" width="170" height="20" as="geometry"/>
                </mxCell>
                <mxCell id="p8MQolTtLwwHdf918yn9-111" value="" style="rounded=0;whiteSpace=wrap;html=1;" parent="1" vertex="1">
                    <mxGeometry x="130" y="1020" width="170" height="20" as="geometry"/>
                </mxCell>
                <mxCell id="p8MQolTtLwwHdf918yn9-112" value="" style="rounded=0;whiteSpace=wrap;html=1;" parent="1" vertex="1">
                    <mxGeometry x="130" y="1050" width="170" height="20" as="geometry"/>
                </mxCell>
                <mxCell id="p8MQolTtLwwHdf918yn9-113" value="" style="rounded=0;whiteSpace=wrap;html=1;" parent="1" vertex="1">
                    <mxGeometry x="130" y="1080" width="170" height="20" as="geometry"/>
                </mxCell>
                <mxCell id="p8MQolTtLwwHdf918yn9-114" value="Register Owner Account here" style="text;html=1;strokeColor=none;fillColor=none;align=center;verticalAlign=middle;whiteSpace=wrap;rounded=0;fontSize=16;" parent="1" vertex="1">
                    <mxGeometry x="90" y="897.5" width="190" height="30" as="geometry"/>
                </mxCell>
                <mxCell id="p8MQolTtLwwHdf918yn9-115" value="Register" style="rounded=0;whiteSpace=wrap;html=1;fontSize=16;fillColor=none;" parent="1" vertex="1">
                    <mxGeometry x="125" y="1117.5" width="120" height="30" as="geometry"/>
                </mxCell>
                <mxCell id="p8MQolTtLwwHdf918yn9-117" value="&lt;font style=&quot;font-size: 20px;&quot;&gt;1. Owner Register&lt;/font&gt;" style="rounded=1;whiteSpace=wrap;html=1;fillColor=#1ba1e2;strokeColor=#006EAF;fontSize=15;fontColor=#ffffff;" parent="1" vertex="1">
                    <mxGeometry x="41" y="760" width="261.5" height="60" as="geometry"/>
                </mxCell>
                <mxCell id="p8MQolTtLwwHdf918yn9-118" value="" style="endArrow=classic;html=1;fontSize=16;exitX=1;exitY=0.5;exitDx=0;exitDy=0;" parent="1" source="p8MQolTtLwwHdf918yn9-115" edge="1">
                    <mxGeometry width="50" height="50" relative="1" as="geometry">
                        <mxPoint x="570" y="980" as="sourcePoint"/>
                        <mxPoint x="580" y="1133" as="targetPoint"/>
                    </mxGeometry>
                </mxCell>
                <mxCell id="p8MQolTtLwwHdf918yn9-129" value="" style="rounded=0;whiteSpace=wrap;html=1;" parent="1" vertex="1">
                    <mxGeometry x="585" y="842.5" width="435" height="387.5" as="geometry"/>
                </mxCell>
                <mxCell id="p8MQolTtLwwHdf918yn9-130" value="" style="ellipse;whiteSpace=wrap;html=1;aspect=fixed;" parent="1" vertex="1">
                    <mxGeometry x="609.25" y="893.5" width="35" height="35" as="geometry"/>
                </mxCell>
                <mxCell id="p8MQolTtLwwHdf918yn9-131" value="Booking Request" style="rounded=0;whiteSpace=wrap;html=1;fillColor=none;" parent="1" vertex="1">
                    <mxGeometry x="609.25" y="974" width="55.75" height="61" as="geometry"/>
                </mxCell>
                <mxCell id="p8MQolTtLwwHdf918yn9-132" value="Update Studio Info" style="rounded=0;whiteSpace=wrap;html=1;fillColor=#76608a;fontColor=#ffffff;strokeColor=#432D57;" parent="1" vertex="1">
                    <mxGeometry x="609.25" y="1062.5" width="55.75" height="61" as="geometry"/>
                </mxCell>
                <mxCell id="p8MQolTtLwwHdf918yn9-137" value="" style="rounded=0;whiteSpace=wrap;html=1;fontSize=10;align=left;" parent="1" vertex="1">
                    <mxGeometry x="675" y="960" width="325" height="250" as="geometry"/>
                </mxCell>
                <mxCell id="p8MQolTtLwwHdf918yn9-138" value="&lt;span style=&quot;color: rgba(0, 0, 0, 0); font-family: monospace; font-size: 0px; text-align: start;&quot;&gt;%3CmxGraphModel%3E%3Croot%3E%3CmxCell%20id%3D%220%22%2F%3E%3CmxCell%20id%3D%221%22%20parent%3D%220%22%2F%3E%3CmxCell%20id%3D%222%22%20value%3D%22%22%20style%3D%22group%3BfillColor%3Dnone%3B%22%20vertex%3D%221%22%20connectable%3D%220%22%20parent%3D%221%22%3E%3CmxGeometry%20x%3D%221715%22%20y%3D%22-120%22%20width%3D%22410%22%20height%3D%22370%22%20as%3D%22geometry%22%2F%3E%3C%2FmxCell%3E%3CmxCell%20id%3D%223%22%20value%3D%22%22%20style%3D%22rounded%3D0%3BwhiteSpace%3Dwrap%3Bhtml%3D1%3B%22%20vertex%3D%221%22%20parent%3D%222%22%3E%3CmxGeometry%20width%3D%22410%22%20height%3D%22370%22%20as%3D%22geometry%22%2F%3E%3C%2FmxCell%3E%3CmxCell%20id%3D%224%22%20value%3D%22%22%20style%3D%22ellipse%3BwhiteSpace%3Dwrap%3Bhtml%3D1%3Baspect%3Dfixed%3B%22%20vertex%3D%221%22%20parent%3D%222%22%3E%3CmxGeometry%20x%3D%2224.25%22%20y%3D%2251%22%20width%3D%2235%22%20height%3D%2235%22%20as%3D%22geometry%22%2F%3E%3C%2FmxCell%3E%3CmxCell%20id%3D%225%22%20value%3D%22%22%20style%3D%22rounded%3D0%3BwhiteSpace%3Dwrap%3Bhtml%3D1%3B%22%20vertex%3D%221%22%20parent%3D%222%22%3E%3CmxGeometry%20x%3D%2280%22%20y%3D%2230%22%20width%3D%22320%22%20height%3D%2261%22%20as%3D%22geometry%22%2F%3E%3C%2FmxCell%3E%3CmxCell%20id%3D%226%22%20value%3D%22Booking%20Request%22%20style%3D%22rounded%3D0%3BwhiteSpace%3Dwrap%3Bhtml%3D1%3BfillColor%3D%2376608a%3BfontColor%3D%23ffffff%3BstrokeColor%3D%23432D57%3B%22%20vertex%3D%221%22%20parent%3D%222%22%3E%3CmxGeometry%20x%3D%2224.25%22%20y%3D%22131.5%22%20width%3D%2255.75%22%20height%3D%2261%22%20as%3D%22geometry%22%2F%3E%3C%2FmxCell%3E%3CmxCell%20id%3D%227%22%20value%3D%22Update%20Studio%20Info%22%20style%3D%22rounded%3D0%3BwhiteSpace%3Dwrap%3Bhtml%3D1%3B%22%20vertex%3D%221%22%20parent%3D%222%22%3E%3CmxGeometry%20x%3D%2224.25%22%20y%3D%22220%22%20width%3D%2255.75%22%20height%3D%2261%22%20as%3D%22geometry%22%2F%3E%3C%2FmxCell%3E%3CmxCell%20id%3D%228%22%20value%3D%22Pending%22%20style%3D%22rounded%3D0%3BwhiteSpace%3Dwrap%3Bhtml%3D1%3BfontSize%3D10%3BfillColor%3Dnone%3B%22%20vertex%3D%221%22%20parent%3D%222%22%3E%3CmxGeometry%20x%3D%2290%22%20y%3D%22111.5%22%20width%3D%2270%22%20height%3D%2220%22%20as%3D%22geometry%22%2F%3E%3C%2FmxCell%3E%3CmxCell%20id%3D%229%22%20value%3D%22Waiting%20for%20Payment%22%20style%3D%22rounded%3D0%3BwhiteSpace%3Dwrap%3Bhtml%3D1%3BfontSize%3D10%3BfillColor%3D%2376608A%3BstrokeColor%3D%237b7099%3BfontColor%3D%23ffffff%3BgradientColor%3Dnone%3B%22%20vertex%3D%221%22%20parent%3D%222%22%3E%3CmxGeometry%20x%3D%22170%22%20y%3D%22111%22%20width%3D%2270%22%20height%3D%2220.5%22%20as%3D%22geometry%22%2F%3E%3C%2FmxCell%3E%3CmxCell%20id%3D%2210%22%20value%3D%22Approved%22%20style%3D%22rounded%3D0%3BwhiteSpace%3Dwrap%3Bhtml%3D1%3BfontSize%3D10%3B%22%20vertex%3D%221%22%20parent%3D%222%22%3E%3CmxGeometry%20x%3D%22250%22%20y%3D%22111%22%20width%3D%2270%22%20height%3D%2220.5%22%20as%3D%22geometry%22%2F%3E%3C%2FmxCell%3E%3CmxCell%20id%3D%2211%22%20value%3D%22Reject%22%20style%3D%22rounded%3D0%3BwhiteSpace%3Dwrap%3Bhtml%3D1%3BfontSize%3D10%3B%22%20vertex%3D%221%22%20parent%3D%222%22%3E%3CmxGeometry%20x%3D%22330%22%20y%3D%22111.5%22%20width%3D%2270%22%20height%3D%2220.5%22%20as%3D%22geometry%22%2F%3E%3C%2FmxCell%3E%3CmxCell%20id%3D%2212%22%20value%3D%22Booking%20Request%26amp%3Bnbsp%3B%22%20style%3D%22rounded%3D0%3BwhiteSpace%3Dwrap%3Bhtml%3D1%3BfontSize%3D10%3Balign%3Dleft%3B%22%20vertex%3D%221%22%20parent%3D%222%22%3E%3CmxGeometry%20x%3D%2290%22%20y%3D%22137.75%22%20width%3D%22300%22%20height%3D%2263.25%22%20as%3D%22geometry%22%2F%3E%3C%2FmxCell%3E%3CmxCell%20id%3D%2213%22%20value%3D%22Approved%22%20style%3D%22rounded%3D0%3BwhiteSpace%3Dwrap%3Bhtml%3D1%3BfontSize%3D10%3B%22%20vertex%3D%221%22%20parent%3D%222%22%3E%3CmxGeometry%20x%3D%22310%22%20y%3D%22147%22%20width%3D%2260%22%20height%3D%2220%22%20as%3D%22geometry%22%2F%3E%3C%2FmxCell%3E%3CmxCell%20id%3D%2214%22%20value%3D%22Reject%22%20style%3D%22rounded%3D0%3BwhiteSpace%3Dwrap%3Bhtml%3D1%3BfontSize%3D10%3B%22%20vertex%3D%221%22%20parent%3D%222%22%3E%3CmxGeometry%20x%3D%22310%22%20y%3D%22171%22%20width%3D%2260%22%20height%3D%2220%22%20as%3D%22geometry%22%2F%3E%3C%2FmxCell%3E%3C%2Froot%3E%3C%2FmxGraphModel%3E&lt;/span&gt;" style="rounded=0;whiteSpace=wrap;html=1;" parent="1" vertex="1">
                    <mxGeometry x="675" y="867.5" width="320" height="61" as="geometry"/>
                </mxCell>
                <mxCell id="p8MQolTtLwwHdf918yn9-139" value="&lt;span style=&quot;color: rgb(240, 240, 240); font-family: Helvetica; font-style: normal; font-variant-ligatures: normal; font-variant-caps: normal; font-weight: 400; letter-spacing: normal; orphans: 2; text-align: left; text-indent: 0px; text-transform: none; widows: 2; word-spacing: 0px; -webkit-text-stroke-width: 0px; background-color: rgb(42, 37, 47); text-decoration-thickness: initial; text-decoration-style: initial; text-decoration-color: initial; float: none; display: inline !important;&quot;&gt;&lt;font style=&quot;font-size: 16px;&quot;&gt;Update your studio info here.&lt;/font&gt;&lt;/span&gt;" style="text;whiteSpace=wrap;html=1;fontSize=16;" parent="1" vertex="1">
                    <mxGeometry x="731.5" y="970" width="220" height="40" as="geometry"/>
                </mxCell>
                <mxCell id="p8MQolTtLwwHdf918yn9-140" value="&lt;font style=&quot;font-size: 20px;&quot;&gt;2. Studio Owner Panel (Studio Info)&lt;/font&gt;" style="rounded=1;whiteSpace=wrap;html=1;fillColor=#1ba1e2;strokeColor=#006EAF;fontSize=15;fontColor=#ffffff;" parent="1" vertex="1">
                    <mxGeometry x="690" y="760" width="261.5" height="60" as="geometry"/>
                </mxCell>
                <mxCell id="p8MQolTtLwwHdf918yn9-143" value="" style="rounded=0;whiteSpace=wrap;html=1;" parent="1" vertex="1">
                    <mxGeometry x="752.5" y="1010" width="170" height="20" as="geometry"/>
                </mxCell>
                <mxCell id="p8MQolTtLwwHdf918yn9-144" value="" style="rounded=0;whiteSpace=wrap;html=1;" parent="1" vertex="1">
                    <mxGeometry x="752.5" y="1040" width="170" height="20" as="geometry"/>
                </mxCell>
                <mxCell id="p8MQolTtLwwHdf918yn9-145" value="" style="rounded=0;whiteSpace=wrap;html=1;" parent="1" vertex="1">
                    <mxGeometry x="752.5" y="1070" width="170" height="20" as="geometry"/>
                </mxCell>
                <mxCell id="p8MQolTtLwwHdf918yn9-146" value="" style="rounded=0;whiteSpace=wrap;html=1;" parent="1" vertex="1">
                    <mxGeometry x="752.5" y="1100" width="170" height="20" as="geometry"/>
                </mxCell>
                <mxCell id="p8MQolTtLwwHdf918yn9-147" value="" style="rounded=0;whiteSpace=wrap;html=1;" parent="1" vertex="1">
                    <mxGeometry x="752.5" y="1130" width="170" height="20" as="geometry"/>
                </mxCell>
                <mxCell id="p8MQolTtLwwHdf918yn9-148" value="update" style="rounded=0;whiteSpace=wrap;html=1;fontSize=16;fillColor=none;" parent="1" vertex="1">
                    <mxGeometry x="777.5" y="1170" width="120" height="30" as="geometry"/>
                </mxCell>
                <mxCell id="p8MQolTtLwwHdf918yn9-149" value="first name" style="text;html=1;strokeColor=none;fillColor=none;align=center;verticalAlign=middle;whiteSpace=wrap;rounded=0;fontSize=16;" parent="1" vertex="1">
                    <mxGeometry x="50" y="952.5" width="80" height="30" as="geometry"/>
                </mxCell>
                <mxCell id="p8MQolTtLwwHdf918yn9-150" value="password" style="text;html=1;strokeColor=none;fillColor=none;align=center;verticalAlign=middle;whiteSpace=wrap;rounded=0;fontSize=16;" parent="1" vertex="1">
                    <mxGeometry x="50" y="1045" width="80" height="30" as="geometry"/>
                </mxCell>
                <mxCell id="p8MQolTtLwwHdf918yn9-151" value="confirm password" style="text;html=1;strokeColor=none;fillColor=none;align=center;verticalAlign=middle;whiteSpace=wrap;rounded=0;fontSize=16;" parent="1" vertex="1">
                    <mxGeometry x="52" y="1075" width="80" height="30" as="geometry"/>
                </mxCell>
                <mxCell id="p8MQolTtLwwHdf918yn9-152" value="email" style="text;html=1;strokeColor=none;fillColor=none;align=center;verticalAlign=middle;whiteSpace=wrap;rounded=0;fontSize=16;" parent="1" vertex="1">
                    <mxGeometry x="52" y="1015" width="80" height="30" as="geometry"/>
                </mxCell>
                <mxCell id="p8MQolTtLwwHdf918yn9-153" value="last name" style="text;html=1;strokeColor=none;fillColor=none;align=center;verticalAlign=middle;whiteSpace=wrap;rounded=0;fontSize=16;" parent="1" vertex="1">
                    <mxGeometry x="52" y="980" width="80" height="30" as="geometry"/>
                </mxCell>
                <mxCell id="p8MQolTtLwwHdf918yn9-167" value="&lt;span style=&quot;font-size: 15px;&quot;&gt;Studio owner registers the account.&lt;/span&gt;" style="shape=note;whiteSpace=wrap;html=1;backgroundOutline=1;darkOpacity=0.05;fontSize=16;size=16;fillColor=#e3c800;fontColor=#000000;strokeColor=#B09500;" parent="1" vertex="1">
                    <mxGeometry x="85.5" y="1240" width="209" height="100" as="geometry"/>
                </mxCell>
                <mxCell id="p8MQolTtLwwHdf918yn9-168" value="&lt;span style=&quot;font-size: 15px;&quot;&gt;Studio owner needs to fill in all the information in their panel so that the studio could be listed in the homepage&lt;/span&gt;" style="shape=note;whiteSpace=wrap;html=1;backgroundOutline=1;darkOpacity=0.05;fontSize=16;size=16;fillColor=#e3c800;fontColor=#000000;strokeColor=#B09500;" parent="1" vertex="1">
                    <mxGeometry x="697.5" y="1240" width="246.5" height="100" as="geometry"/>
                </mxCell>
                <mxCell id="p8MQolTtLwwHdf918yn9-171" value="" style="endArrow=classic;html=1;fontSize=16;exitX=0.75;exitY=1;exitDx=0;exitDy=0;" parent="1" source="12" edge="1">
                    <mxGeometry width="50" height="50" relative="1" as="geometry">
                        <mxPoint x="640" y="690" as="sourcePoint"/>
                        <mxPoint x="290" y="850" as="targetPoint"/>
                    </mxGeometry>
                </mxCell>
                <mxCell id="p8MQolTtLwwHdf918yn9-172" value="" style="rounded=0;whiteSpace=wrap;html=1;" parent="1" vertex="1">
                    <mxGeometry x="52" y="1550" width="310" height="370" as="geometry"/>
                </mxCell>
                <mxCell id="p8MQolTtLwwHdf918yn9-175" value="" style="rounded=0;whiteSpace=wrap;html=1;" parent="1" vertex="1">
                    <mxGeometry x="148" y="1685" width="170" height="20" as="geometry"/>
                </mxCell>
                <mxCell id="p8MQolTtLwwHdf918yn9-176" value="" style="rounded=0;whiteSpace=wrap;html=1;" parent="1" vertex="1">
                    <mxGeometry x="148" y="1715" width="170" height="20" as="geometry"/>
                </mxCell>
                <mxCell id="p8MQolTtLwwHdf918yn9-179" value="Login" style="rounded=0;whiteSpace=wrap;html=1;fontSize=16;fillColor=none;" parent="1" vertex="1">
                    <mxGeometry x="142" y="1770" width="120" height="30" as="geometry"/>
                </mxCell>
                <mxCell id="p8MQolTtLwwHdf918yn9-181" value="password" style="text;html=1;strokeColor=none;fillColor=none;align=center;verticalAlign=middle;whiteSpace=wrap;rounded=0;fontSize=16;" parent="1" vertex="1">
                    <mxGeometry x="68" y="1710" width="80" height="30" as="geometry"/>
                </mxCell>
                <mxCell id="p8MQolTtLwwHdf918yn9-183" value="email" style="text;html=1;strokeColor=none;fillColor=none;align=center;verticalAlign=middle;whiteSpace=wrap;rounded=0;fontSize=16;" parent="1" vertex="1">
                    <mxGeometry x="70" y="1680" width="80" height="30" as="geometry"/>
                </mxCell>
                <mxCell id="p8MQolTtLwwHdf918yn9-185" value="social login" style="rounded=0;whiteSpace=wrap;html=1;fontSize=16;fillColor=none;" parent="1" vertex="1">
                    <mxGeometry x="137" y="1820" width="120" height="60" as="geometry"/>
                </mxCell>
                <mxCell id="p8MQolTtLwwHdf918yn9-186" value="" style="rounded=0;whiteSpace=wrap;html=1;" parent="1" vertex="1">
                    <mxGeometry x="587" y="1550" width="410" height="370" as="geometry"/>
                </mxCell>
                <mxCell id="p8MQolTtLwwHdf918yn9-187" value="" style="ellipse;whiteSpace=wrap;html=1;aspect=fixed;" parent="1" vertex="1">
                    <mxGeometry x="611.25" y="1591.38" width="35" height="35" as="geometry"/>
                </mxCell>
                <mxCell id="p8MQolTtLwwHdf918yn9-188" value="Booking Request" style="rounded=0;whiteSpace=wrap;html=1;fillColor=#76608a;fontColor=#ffffff;strokeColor=#432D57;" parent="1" vertex="1">
                    <mxGeometry x="611.25" y="1671.88" width="55.75" height="61" as="geometry"/>
                </mxCell>
                <mxCell id="p8MQolTtLwwHdf918yn9-189" value="Update Studio Info" style="rounded=0;whiteSpace=wrap;html=1;" parent="1" vertex="1">
                    <mxGeometry x="611.25" y="1760.38" width="55.75" height="61" as="geometry"/>
                </mxCell>
                <mxCell id="p8MQolTtLwwHdf918yn9-190" value="Pending" style="rounded=0;whiteSpace=wrap;html=1;fontSize=10;fillColor=#76608a;fontColor=#ffffff;strokeColor=#432D57;" parent="1" vertex="1">
                    <mxGeometry x="677" y="1651.88" width="70" height="20" as="geometry"/>
                </mxCell>
                <mxCell id="p8MQolTtLwwHdf918yn9-191" value="Waiting for Payment" style="rounded=0;whiteSpace=wrap;html=1;fontSize=10;" parent="1" vertex="1">
                    <mxGeometry x="757" y="1651.38" width="70" height="20.5" as="geometry"/>
                </mxCell>
                <mxCell id="p8MQolTtLwwHdf918yn9-192" value="Approved" style="rounded=0;whiteSpace=wrap;html=1;fontSize=10;" parent="1" vertex="1">
                    <mxGeometry x="837" y="1651.38" width="70" height="20.5" as="geometry"/>
                </mxCell>
                <mxCell id="p8MQolTtLwwHdf918yn9-195" value="Booking Request&amp;nbsp;" style="rounded=0;whiteSpace=wrap;html=1;fontSize=10;align=left;" parent="1" vertex="1">
                    <mxGeometry x="689.5" y="1680" width="300" height="63.25" as="geometry"/>
                </mxCell>
                <mxCell id="p8MQolTtLwwHdf918yn9-193" value="Accept" style="rounded=0;whiteSpace=wrap;html=1;fontSize=10;" parent="1" vertex="1">
                    <mxGeometry x="897" y="1687.38" width="60" height="20" as="geometry"/>
                </mxCell>
                <mxCell id="p8MQolTtLwwHdf918yn9-194" value="Reject" style="rounded=0;whiteSpace=wrap;html=1;fontSize=10;" parent="1" vertex="1">
                    <mxGeometry x="897" y="1711.38" width="60" height="20" as="geometry"/>
                </mxCell>
                <mxCell id="p8MQolTtLwwHdf918yn9-196" value="&lt;span style=&quot;color: rgba(0, 0, 0, 0); font-family: monospace; font-size: 0px; text-align: start;&quot;&gt;%3CmxGraphModel%3E%3Croot%3E%3CmxCell%20id%3D%220%22%2F%3E%3CmxCell%20id%3D%221%22%20parent%3D%220%22%2F%3E%3CmxCell%20id%3D%222%22%20value%3D%22%22%20style%3D%22group%3BfillColor%3Dnone%3B%22%20vertex%3D%221%22%20connectable%3D%220%22%20parent%3D%221%22%3E%3CmxGeometry%20x%3D%221715%22%20y%3D%22-120%22%20width%3D%22410%22%20height%3D%22370%22%20as%3D%22geometry%22%2F%3E%3C%2FmxCell%3E%3CmxCell%20id%3D%223%22%20value%3D%22%22%20style%3D%22rounded%3D0%3BwhiteSpace%3Dwrap%3Bhtml%3D1%3B%22%20vertex%3D%221%22%20parent%3D%222%22%3E%3CmxGeometry%20width%3D%22410%22%20height%3D%22370%22%20as%3D%22geometry%22%2F%3E%3C%2FmxCell%3E%3CmxCell%20id%3D%224%22%20value%3D%22%22%20style%3D%22ellipse%3BwhiteSpace%3Dwrap%3Bhtml%3D1%3Baspect%3Dfixed%3B%22%20vertex%3D%221%22%20parent%3D%222%22%3E%3CmxGeometry%20x%3D%2224.25%22%20y%3D%2251%22%20width%3D%2235%22%20height%3D%2235%22%20as%3D%22geometry%22%2F%3E%3C%2FmxCell%3E%3CmxCell%20id%3D%225%22%20value%3D%22%22%20style%3D%22rounded%3D0%3BwhiteSpace%3Dwrap%3Bhtml%3D1%3B%22%20vertex%3D%221%22%20parent%3D%222%22%3E%3CmxGeometry%20x%3D%2280%22%20y%3D%2230%22%20width%3D%22320%22%20height%3D%2261%22%20as%3D%22geometry%22%2F%3E%3C%2FmxCell%3E%3CmxCell%20id%3D%226%22%20value%3D%22Booking%20Request%22%20style%3D%22rounded%3D0%3BwhiteSpace%3Dwrap%3Bhtml%3D1%3BfillColor%3D%2376608a%3BfontColor%3D%23ffffff%3BstrokeColor%3D%23432D57%3B%22%20vertex%3D%221%22%20parent%3D%222%22%3E%3CmxGeometry%20x%3D%2224.25%22%20y%3D%22131.5%22%20width%3D%2255.75%22%20height%3D%2261%22%20as%3D%22geometry%22%2F%3E%3C%2FmxCell%3E%3CmxCell%20id%3D%227%22%20value%3D%22Update%20Studio%20Info%22%20style%3D%22rounded%3D0%3BwhiteSpace%3Dwrap%3Bhtml%3D1%3B%22%20vertex%3D%221%22%20parent%3D%222%22%3E%3CmxGeometry%20x%3D%2224.25%22%20y%3D%22220%22%20width%3D%2255.75%22%20height%3D%2261%22%20as%3D%22geometry%22%2F%3E%3C%2FmxCell%3E%3CmxCell%20id%3D%228%22%20value%3D%22Pending%22%20style%3D%22rounded%3D0%3BwhiteSpace%3Dwrap%3Bhtml%3D1%3BfontSize%3D10%3BfillColor%3Dnone%3B%22%20vertex%3D%221%22%20parent%3D%222%22%3E%3CmxGeometry%20x%3D%2290%22%20y%3D%22111.5%22%20width%3D%2270%22%20height%3D%2220%22%20as%3D%22geometry%22%2F%3E%3C%2FmxCell%3E%3CmxCell%20id%3D%229%22%20value%3D%22Waiting%20for%20Payment%22%20style%3D%22rounded%3D0%3BwhiteSpace%3Dwrap%3Bhtml%3D1%3BfontSize%3D10%3BfillColor%3D%2376608A%3BstrokeColor%3D%237b7099%3BfontColor%3D%23ffffff%3BgradientColor%3Dnone%3B%22%20vertex%3D%221%22%20parent%3D%222%22%3E%3CmxGeometry%20x%3D%22170%22%20y%3D%22111%22%20width%3D%2270%22%20height%3D%2220.5%22%20as%3D%22geometry%22%2F%3E%3C%2FmxCell%3E%3CmxCell%20id%3D%2210%22%20value%3D%22Approved%22%20style%3D%22rounded%3D0%3BwhiteSpace%3Dwrap%3Bhtml%3D1%3BfontSize%3D10%3B%22%20vertex%3D%221%22%20parent%3D%222%22%3E%3CmxGeometry%20x%3D%22250%22%20y%3D%22111%22%20width%3D%2270%22%20height%3D%2220.5%22%20as%3D%22geometry%22%2F%3E%3C%2FmxCell%3E%3CmxCell%20id%3D%2211%22%20value%3D%22Reject%22%20style%3D%22rounded%3D0%3BwhiteSpace%3Dwrap%3Bhtml%3D1%3BfontSize%3D10%3B%22%20vertex%3D%221%22%20parent%3D%222%22%3E%3CmxGeometry%20x%3D%22330%22%20y%3D%22111.5%22%20width%3D%2270%22%20height%3D%2220.5%22%20as%3D%22geometry%22%2F%3E%3C%2FmxCell%3E%3CmxCell%20id%3D%2212%22%20value%3D%22Booking%20Request%26amp%3Bnbsp%3B%22%20style%3D%22rounded%3D0%3BwhiteSpace%3Dwrap%3Bhtml%3D1%3BfontSize%3D10%3Balign%3Dleft%3B%22%20vertex%3D%221%22%20parent%3D%222%22%3E%3CmxGeometry%20x%3D%2290%22%20y%3D%22137.75%22%20width%3D%22300%22%20height%3D%2263.25%22%20as%3D%22geometry%22%2F%3E%3C%2FmxCell%3E%3CmxCell%20id%3D%2213%22%20value%3D%22Approved%22%20style%3D%22rounded%3D0%3BwhiteSpace%3Dwrap%3Bhtml%3D1%3BfontSize%3D10%3B%22%20vertex%3D%221%22%20parent%3D%222%22%3E%3CmxGeometry%20x%3D%22310%22%20y%3D%22147%22%20width%3D%2260%22%20height%3D%2220%22%20as%3D%22geometry%22%2F%3E%3C%2FmxCell%3E%3CmxCell%20id%3D%2214%22%20value%3D%22Reject%22%20style%3D%22rounded%3D0%3BwhiteSpace%3Dwrap%3Bhtml%3D1%3BfontSize%3D10%3B%22%20vertex%3D%221%22%20parent%3D%222%22%3E%3CmxGeometry%20x%3D%22310%22%20y%3D%22171%22%20width%3D%2260%22%20height%3D%2220%22%20as%3D%22geometry%22%2F%3E%3C%2FmxCell%3E%3C%2Froot%3E%3C%2FmxGraphModel%3E&lt;/span&gt;" style="rounded=0;whiteSpace=wrap;html=1;" parent="1" vertex="1">
                    <mxGeometry x="662.75" y="1565.38" width="320" height="61" as="geometry"/>
                </mxCell>
                <mxCell id="p8MQolTtLwwHdf918yn9-197" value="Reject" style="rounded=0;whiteSpace=wrap;html=1;fontSize=10;" parent="1" vertex="1">
                    <mxGeometry x="912.75" y="1651.38" width="70" height="20.5" as="geometry"/>
                </mxCell>
                <mxCell id="p8MQolTtLwwHdf918yn9-199" value="" style="endArrow=classic;html=1;fontSize=16;exitX=1;exitY=0.5;exitDx=0;exitDy=0;entryX=0.012;entryY=0.432;entryDx=0;entryDy=0;entryPerimeter=0;" parent="1" source="p8MQolTtLwwHdf918yn9-179" target="p8MQolTtLwwHdf918yn9-186" edge="1">
                    <mxGeometry width="50" height="50" relative="1" as="geometry">
                        <mxPoint x="257" y="1212.5" as="sourcePoint"/>
                        <mxPoint x="592" y="1212.9999999999995" as="targetPoint"/>
                    </mxGeometry>
                </mxCell>
                <mxCell id="p8MQolTtLwwHdf918yn9-200" value="" style="endArrow=classic;html=1;fontSize=16;exitX=1;exitY=0.5;exitDx=0;exitDy=0;" parent="1" source="p8MQolTtLwwHdf918yn9-185" edge="1">
                    <mxGeometry width="50" height="50" relative="1" as="geometry">
                        <mxPoint x="272" y="1795" as="sourcePoint"/>
                        <mxPoint x="592" y="1710" as="targetPoint"/>
                    </mxGeometry>
                </mxCell>
                <mxCell id="p8MQolTtLwwHdf918yn9-201" value="&lt;font style=&quot;font-size: 20px;&quot;&gt;1. Owner Login&lt;/font&gt;" style="rounded=1;whiteSpace=wrap;html=1;fillColor=#1ba1e2;strokeColor=#006EAF;fontSize=15;fontColor=#ffffff;" parent="1" vertex="1">
                    <mxGeometry x="71.25" y="1470" width="261.5" height="60" as="geometry"/>
                </mxCell>
                <mxCell id="p8MQolTtLwwHdf918yn9-202" value="&lt;font style=&quot;font-size: 20px;&quot;&gt;2. Studio Owner Panel&lt;/font&gt;" style="rounded=1;whiteSpace=wrap;html=1;fillColor=#1ba1e2;strokeColor=#006EAF;fontSize=15;fontColor=#ffffff;" parent="1" vertex="1">
                    <mxGeometry x="661" y="1470" width="261.5" height="60" as="geometry"/>
                </mxCell>
                <mxCell id="E_bKtkKwgNFDJzQ8ZGBn-41" value="social login" style="rounded=0;whiteSpace=wrap;html=1;fontSize=16;fillColor=none;" parent="1" vertex="1">
                    <mxGeometry x="125" y="1160" width="120" height="50" as="geometry"/>
                </mxCell>
                <mxCell id="KtzqiFElIGyWo6hgeGF_-42" value="See All" style="rounded=0;whiteSpace=wrap;html=1;" vertex="1" parent="1">
                    <mxGeometry x="131" y="290" width="120" height="10" as="geometry"/>
                </mxCell>
            </root>
        </mxGraphModel>
    </diagram>
    <diagram id="98K31oUmz1QbkBrKbpwi" name="HomePage &amp; All Studio Page">
        <mxGraphModel dx="1333" dy="1978" grid="1" gridSize="10" guides="1" tooltips="1" connect="1" arrows="1" fold="1" page="1" pageScale="1" pageWidth="827" pageHeight="1169" math="0" shadow="0">
            <root>
                <mxCell id="0"/>
                <mxCell id="1" parent="0"/>
                <mxCell id="fXhPqVAaSFbAKqmni24k-3" value="" style="rounded=0;whiteSpace=wrap;html=1;" parent="1" vertex="1">
                    <mxGeometry x="40" y="30" width="720" height="60" as="geometry"/>
                </mxCell>
                <mxCell id="fXhPqVAaSFbAKqmni24k-4" value="Logo" style="text;html=1;strokeColor=none;fillColor=none;align=center;verticalAlign=middle;whiteSpace=wrap;rounded=0;fontSize=19;" parent="1" vertex="1">
                    <mxGeometry x="80" y="45" width="60" height="30" as="geometry"/>
                </mxCell>
                <mxCell id="fXhPqVAaSFbAKqmni24k-5" value="" style="rounded=0;whiteSpace=wrap;html=1;" parent="1" vertex="1">
                    <mxGeometry x="40" y="140" width="720" height="200" as="geometry"/>
                </mxCell>
                <mxCell id="fXhPqVAaSFbAKqmni24k-6" value="Banner" style="text;html=1;strokeColor=none;fillColor=none;align=center;verticalAlign=middle;whiteSpace=wrap;rounded=0;fontSize=19;" parent="1" vertex="1">
                    <mxGeometry x="355" y="170" width="90" height="55" as="geometry"/>
                </mxCell>
                <mxCell id="fXhPqVAaSFbAKqmni24k-7" value="Booking" style="text;html=1;strokeColor=none;fillColor=none;align=center;verticalAlign=middle;whiteSpace=wrap;rounded=0;fontSize=19;" parent="1" vertex="1">
                    <mxGeometry x="240" y="45" width="60" height="30" as="geometry"/>
                </mxCell>
                <mxCell id="fXhPqVAaSFbAKqmni24k-8" value="Join Us" style="text;html=1;strokeColor=none;fillColor=none;align=center;verticalAlign=middle;whiteSpace=wrap;rounded=0;fontSize=19;" parent="1" vertex="1">
                    <mxGeometry x="355" y="45" width="75" height="30" as="geometry"/>
                </mxCell>
                <mxCell id="fXhPqVAaSFbAKqmni24k-10" value="" style="rounded=0;whiteSpace=wrap;html=1;" parent="1" vertex="1">
                    <mxGeometry x="40" y="390" width="720" height="280" as="geometry"/>
                </mxCell>
                <mxCell id="fXhPqVAaSFbAKqmni24k-11" value="Booking" style="text;html=1;strokeColor=none;fillColor=none;align=center;verticalAlign=middle;whiteSpace=wrap;rounded=0;fontSize=20;" parent="1" vertex="1">
                    <mxGeometry x="370" y="415" width="60" height="30" as="geometry"/>
                </mxCell>
                <mxCell id="fXhPqVAaSFbAKqmni24k-13" value="" style="rounded=0;whiteSpace=wrap;html=1;" parent="1" vertex="1">
                    <mxGeometry x="90" y="480" width="170" height="130" as="geometry"/>
                </mxCell>
                <mxCell id="fXhPqVAaSFbAKqmni24k-14" value="" style="rounded=0;whiteSpace=wrap;html=1;" parent="1" vertex="1">
                    <mxGeometry x="315" y="480" width="170" height="130" as="geometry"/>
                </mxCell>
                <mxCell id="fXhPqVAaSFbAKqmni24k-15" value="" style="rounded=0;whiteSpace=wrap;html=1;" parent="1" vertex="1">
                    <mxGeometry x="540" y="480" width="170" height="130" as="geometry"/>
                </mxCell>
                <mxCell id="fXhPqVAaSFbAKqmni24k-16" value="Studio" style="text;html=1;strokeColor=none;fillColor=none;align=center;verticalAlign=middle;whiteSpace=wrap;rounded=0;" parent="1" vertex="1">
                    <mxGeometry x="145" y="530" width="60" height="30" as="geometry"/>
                </mxCell>
                <mxCell id="fXhPqVAaSFbAKqmni24k-17" value="Studio" style="text;html=1;strokeColor=none;fillColor=none;align=center;verticalAlign=middle;whiteSpace=wrap;rounded=0;" parent="1" vertex="1">
                    <mxGeometry x="370" y="530" width="60" height="30" as="geometry"/>
                </mxCell>
                <mxCell id="fXhPqVAaSFbAKqmni24k-18" value="Studio" style="text;html=1;strokeColor=none;fillColor=none;align=center;verticalAlign=middle;whiteSpace=wrap;rounded=0;" parent="1" vertex="1">
                    <mxGeometry x="595" y="530" width="60" height="30" as="geometry"/>
                </mxCell>
                <mxCell id="R1FKVDbYHG07uIt5iq-D-1" value="" style="rounded=0;whiteSpace=wrap;html=1;" parent="1" vertex="1">
                    <mxGeometry x="40" y="700" width="720" height="230" as="geometry"/>
                </mxCell>
                <mxCell id="8SC-Wx_Cx05jlJaYwNQX-1" value="Create account" style="rounded=0;whiteSpace=wrap;html=1;" parent="1" vertex="1">
                    <mxGeometry x="331.25" y="830" width="97.5" height="40" as="geometry"/>
                </mxCell>
                <mxCell id="8SC-Wx_Cx05jlJaYwNQX-4" value="&lt;font style=&quot;font-size: 19px;&quot;&gt;Contact&lt;/font&gt;" style="text;html=1;strokeColor=none;fillColor=none;align=center;verticalAlign=middle;whiteSpace=wrap;rounded=0;" parent="1" vertex="1">
                    <mxGeometry x="480" y="45" width="60" height="30" as="geometry"/>
                </mxCell>
                <mxCell id="vbpJSmGYU98oTZ1Pe7of-2" value="Join us to Promote your Yoga Studio" style="text;html=1;strokeColor=none;fillColor=none;align=center;verticalAlign=middle;whiteSpace=wrap;rounded=0;fontSize=20;" parent="1" vertex="1">
                    <mxGeometry x="280" y="740" width="185" height="30" as="geometry"/>
                </mxCell>
                <mxCell id="8SC-Wx_Cx05jlJaYwNQX-6" value="" style="rounded=0;whiteSpace=wrap;html=1;" parent="1" vertex="1">
                    <mxGeometry x="40" y="970" width="720" height="130" as="geometry"/>
                </mxCell>
                <mxCell id="8SC-Wx_Cx05jlJaYwNQX-7" value="Contact info (Whatsapp, Email, IG, FB)" style="text;html=1;strokeColor=none;fillColor=none;align=center;verticalAlign=middle;whiteSpace=wrap;rounded=0;fontSize=19;" parent="1" vertex="1">
                    <mxGeometry x="122.5" y="1005" width="540" height="60" as="geometry"/>
                </mxCell>
                <mxCell id="UAYd5caJNevbsGcPPv3U-1" value="See All" style="rounded=0;whiteSpace=wrap;html=1;" vertex="1" parent="1">
                    <mxGeometry x="345" y="630" width="120" height="30" as="geometry"/>
                </mxCell>
                <mxCell id="UAYd5caJNevbsGcPPv3U-2" value="" style="rounded=0;whiteSpace=wrap;html=1;" vertex="1" parent="1">
                    <mxGeometry x="881" y="20" width="720" height="60" as="geometry"/>
                </mxCell>
                <mxCell id="UAYd5caJNevbsGcPPv3U-3" value="Logo" style="text;html=1;strokeColor=none;fillColor=none;align=center;verticalAlign=middle;whiteSpace=wrap;rounded=0;fontSize=19;" vertex="1" parent="1">
                    <mxGeometry x="921" y="35" width="60" height="30" as="geometry"/>
                </mxCell>
                <mxCell id="UAYd5caJNevbsGcPPv3U-4" value="" style="rounded=0;whiteSpace=wrap;html=1;" vertex="1" parent="1">
                    <mxGeometry x="881" y="130" width="720" height="200" as="geometry"/>
                </mxCell>
                <mxCell id="UAYd5caJNevbsGcPPv3U-5" value="Banner" style="text;html=1;strokeColor=none;fillColor=none;align=center;verticalAlign=middle;whiteSpace=wrap;rounded=0;fontSize=19;" vertex="1" parent="1">
                    <mxGeometry x="1196" y="160" width="90" height="55" as="geometry"/>
                </mxCell>
                <mxCell id="UAYd5caJNevbsGcPPv3U-6" value="Booking" style="text;html=1;strokeColor=none;fillColor=none;align=center;verticalAlign=middle;whiteSpace=wrap;rounded=0;fontSize=19;" vertex="1" parent="1">
                    <mxGeometry x="1081" y="35" width="60" height="30" as="geometry"/>
                </mxCell>
                <mxCell id="UAYd5caJNevbsGcPPv3U-7" value="Join Us" style="text;html=1;strokeColor=none;fillColor=none;align=center;verticalAlign=middle;whiteSpace=wrap;rounded=0;fontSize=19;" vertex="1" parent="1">
                    <mxGeometry x="1196" y="35" width="75" height="30" as="geometry"/>
                </mxCell>
                <mxCell id="UAYd5caJNevbsGcPPv3U-8" value="" style="rounded=0;whiteSpace=wrap;html=1;" vertex="1" parent="1">
                    <mxGeometry x="881" y="380" width="719" height="700" as="geometry"/>
                </mxCell>
                <mxCell id="UAYd5caJNevbsGcPPv3U-9" value="Booking" style="text;html=1;strokeColor=none;fillColor=none;align=center;verticalAlign=middle;whiteSpace=wrap;rounded=0;fontSize=20;" vertex="1" parent="1">
                    <mxGeometry x="1211" y="405" width="60" height="30" as="geometry"/>
                </mxCell>
                <mxCell id="UAYd5caJNevbsGcPPv3U-10" value="" style="rounded=0;whiteSpace=wrap;html=1;" vertex="1" parent="1">
                    <mxGeometry x="931" y="470" width="170" height="130" as="geometry"/>
                </mxCell>
                <mxCell id="UAYd5caJNevbsGcPPv3U-11" value="" style="rounded=0;whiteSpace=wrap;html=1;" vertex="1" parent="1">
                    <mxGeometry x="1156" y="470" width="170" height="130" as="geometry"/>
                </mxCell>
                <mxCell id="UAYd5caJNevbsGcPPv3U-12" value="" style="rounded=0;whiteSpace=wrap;html=1;" vertex="1" parent="1">
                    <mxGeometry x="1381" y="470" width="170" height="130" as="geometry"/>
                </mxCell>
                <mxCell id="UAYd5caJNevbsGcPPv3U-13" value="Studio" style="text;html=1;strokeColor=none;fillColor=none;align=center;verticalAlign=middle;whiteSpace=wrap;rounded=0;" vertex="1" parent="1">
                    <mxGeometry x="986" y="520" width="60" height="30" as="geometry"/>
                </mxCell>
                <mxCell id="UAYd5caJNevbsGcPPv3U-14" value="Studio" style="text;html=1;strokeColor=none;fillColor=none;align=center;verticalAlign=middle;whiteSpace=wrap;rounded=0;" vertex="1" parent="1">
                    <mxGeometry x="1211" y="520" width="60" height="30" as="geometry"/>
                </mxCell>
                <mxCell id="UAYd5caJNevbsGcPPv3U-15" value="Studio" style="text;html=1;strokeColor=none;fillColor=none;align=center;verticalAlign=middle;whiteSpace=wrap;rounded=0;" vertex="1" parent="1">
                    <mxGeometry x="1436" y="520" width="60" height="30" as="geometry"/>
                </mxCell>
                <mxCell id="UAYd5caJNevbsGcPPv3U-16" value="&lt;font style=&quot;font-size: 19px;&quot;&gt;Contact&lt;/font&gt;" style="text;html=1;strokeColor=none;fillColor=none;align=center;verticalAlign=middle;whiteSpace=wrap;rounded=0;" vertex="1" parent="1">
                    <mxGeometry x="1321" y="35" width="60" height="30" as="geometry"/>
                </mxCell>
                <mxCell id="UAYd5caJNevbsGcPPv3U-19" value="See All Studio" style="rounded=0;whiteSpace=wrap;html=1;" vertex="1" parent="1">
                    <mxGeometry x="1080" y="65" width="89" height="40" as="geometry"/>
                </mxCell>
                <mxCell id="VUT6ysM5eA_BAfomJHB5-1" value="Click to scroll down" style="shape=note;whiteSpace=wrap;html=1;backgroundOutline=1;darkOpacity=0.05;fontSize=16;size=16;fillColor=#e3c800;fontColor=#000000;strokeColor=#B09500;" vertex="1" parent="1">
                    <mxGeometry x="180" y="-80" width="400" height="50" as="geometry"/>
                </mxCell>
                <mxCell id="VUT6ysM5eA_BAfomJHB5-3" value="Hover over &quot;booking&quot; and Click this to go to another page - studio page" style="shape=note;whiteSpace=wrap;html=1;backgroundOutline=1;darkOpacity=0.05;fontSize=16;size=16;fillColor=#e3c800;fontColor=#000000;strokeColor=#B09500;" vertex="1" parent="1">
                    <mxGeometry x="1060" y="-100" width="216" height="80" as="geometry"/>
                </mxCell>
                <mxCell id="VUT6ysM5eA_BAfomJHB5-4" value="" style="endArrow=classic;html=1;exitX=0.5;exitY=1;exitDx=0;exitDy=0;exitPerimeter=0;entryX=1;entryY=0.5;entryDx=0;entryDy=0;" edge="1" parent="1" source="VUT6ysM5eA_BAfomJHB5-3" target="UAYd5caJNevbsGcPPv3U-19">
                    <mxGeometry width="50" height="50" relative="1" as="geometry">
                        <mxPoint x="730" y="240" as="sourcePoint"/>
                        <mxPoint x="780" y="190" as="targetPoint"/>
                    </mxGeometry>
                </mxCell>
                <mxCell id="VUT6ysM5eA_BAfomJHB5-6" value="to homepage" style="shape=note;whiteSpace=wrap;html=1;backgroundOutline=1;darkOpacity=0.05;fontSize=16;size=16;fillColor=#e3c800;fontColor=#000000;strokeColor=#B09500;" vertex="1" parent="1">
                    <mxGeometry x="10" y="-80" width="146" height="50" as="geometry"/>
                </mxCell>
                <mxCell id="VUT6ysM5eA_BAfomJHB5-8" value="&lt;font style=&quot;font-size: 19px;&quot;&gt;Owner Login&lt;/font&gt;" style="text;html=1;strokeColor=none;fillColor=none;align=center;verticalAlign=middle;whiteSpace=wrap;rounded=0;" vertex="1" parent="1">
                    <mxGeometry x="640" y="45" width="120" height="30" as="geometry"/>
                </mxCell>
                <mxCell id="VUT6ysM5eA_BAfomJHB5-9" value="Go to Login Page Direclty" style="shape=note;whiteSpace=wrap;html=1;backgroundOutline=1;darkOpacity=0.05;fontSize=16;size=16;fillColor=#e3c800;fontColor=#000000;strokeColor=#B09500;" vertex="1" parent="1">
                    <mxGeometry x="627" y="-80" width="146" height="50" as="geometry"/>
                </mxCell>
                <mxCell id="VUT6ysM5eA_BAfomJHB5-11" value="&lt;font style=&quot;font-size: 19px;&quot;&gt;Owner Login&lt;/font&gt;" style="text;html=1;strokeColor=none;fillColor=none;align=center;verticalAlign=middle;whiteSpace=wrap;rounded=0;" vertex="1" parent="1">
                    <mxGeometry x="1470" y="35" width="120" height="30" as="geometry"/>
                </mxCell>
                <mxCell id="VUT6ysM5eA_BAfomJHB5-27" value="" style="group" vertex="1" connectable="0" parent="1">
                    <mxGeometry x="923.5" y="640" width="620" height="130" as="geometry"/>
                </mxCell>
                <mxCell id="VUT6ysM5eA_BAfomJHB5-15" value="" style="rounded=0;whiteSpace=wrap;html=1;" vertex="1" parent="VUT6ysM5eA_BAfomJHB5-27">
                    <mxGeometry width="170" height="130" as="geometry"/>
                </mxCell>
                <mxCell id="VUT6ysM5eA_BAfomJHB5-16" value="" style="rounded=0;whiteSpace=wrap;html=1;" vertex="1" parent="VUT6ysM5eA_BAfomJHB5-27">
                    <mxGeometry x="225" width="170" height="130" as="geometry"/>
                </mxCell>
                <mxCell id="VUT6ysM5eA_BAfomJHB5-17" value="" style="rounded=0;whiteSpace=wrap;html=1;" vertex="1" parent="VUT6ysM5eA_BAfomJHB5-27">
                    <mxGeometry x="450" width="170" height="130" as="geometry"/>
                </mxCell>
                <mxCell id="VUT6ysM5eA_BAfomJHB5-18" value="Studio" style="text;html=1;strokeColor=none;fillColor=none;align=center;verticalAlign=middle;whiteSpace=wrap;rounded=0;" vertex="1" parent="VUT6ysM5eA_BAfomJHB5-27">
                    <mxGeometry x="55" y="50" width="60" height="30" as="geometry"/>
                </mxCell>
                <mxCell id="VUT6ysM5eA_BAfomJHB5-19" value="Studio" style="text;html=1;strokeColor=none;fillColor=none;align=center;verticalAlign=middle;whiteSpace=wrap;rounded=0;" vertex="1" parent="VUT6ysM5eA_BAfomJHB5-27">
                    <mxGeometry x="280" y="50" width="60" height="30" as="geometry"/>
                </mxCell>
                <mxCell id="VUT6ysM5eA_BAfomJHB5-20" value="Studio" style="text;html=1;strokeColor=none;fillColor=none;align=center;verticalAlign=middle;whiteSpace=wrap;rounded=0;" vertex="1" parent="VUT6ysM5eA_BAfomJHB5-27">
                    <mxGeometry x="505" y="50" width="60" height="30" as="geometry"/>
                </mxCell>
                <mxCell id="VUT6ysM5eA_BAfomJHB5-28" value="" style="group" vertex="1" connectable="0" parent="1">
                    <mxGeometry x="920" y="820" width="620" height="130" as="geometry"/>
                </mxCell>
                <mxCell id="VUT6ysM5eA_BAfomJHB5-29" value="" style="rounded=0;whiteSpace=wrap;html=1;" vertex="1" parent="VUT6ysM5eA_BAfomJHB5-28">
                    <mxGeometry width="170" height="130" as="geometry"/>
                </mxCell>
                <mxCell id="VUT6ysM5eA_BAfomJHB5-30" value="" style="rounded=0;whiteSpace=wrap;html=1;" vertex="1" parent="VUT6ysM5eA_BAfomJHB5-28">
                    <mxGeometry x="225" width="170" height="130" as="geometry"/>
                </mxCell>
                <mxCell id="VUT6ysM5eA_BAfomJHB5-31" value="" style="rounded=0;whiteSpace=wrap;html=1;" vertex="1" parent="VUT6ysM5eA_BAfomJHB5-28">
                    <mxGeometry x="450" width="170" height="130" as="geometry"/>
                </mxCell>
                <mxCell id="VUT6ysM5eA_BAfomJHB5-32" value="Studio" style="text;html=1;strokeColor=none;fillColor=none;align=center;verticalAlign=middle;whiteSpace=wrap;rounded=0;" vertex="1" parent="VUT6ysM5eA_BAfomJHB5-28">
                    <mxGeometry x="55" y="50" width="60" height="30" as="geometry"/>
                </mxCell>
                <mxCell id="VUT6ysM5eA_BAfomJHB5-33" value="Studio" style="text;html=1;strokeColor=none;fillColor=none;align=center;verticalAlign=middle;whiteSpace=wrap;rounded=0;" vertex="1" parent="VUT6ysM5eA_BAfomJHB5-28">
                    <mxGeometry x="280" y="50" width="60" height="30" as="geometry"/>
                </mxCell>
                <mxCell id="VUT6ysM5eA_BAfomJHB5-34" value="Studio" style="text;html=1;strokeColor=none;fillColor=none;align=center;verticalAlign=middle;whiteSpace=wrap;rounded=0;" vertex="1" parent="VUT6ysM5eA_BAfomJHB5-28">
                    <mxGeometry x="505" y="50" width="60" height="30" as="geometry"/>
                </mxCell>
                <mxCell id="VUT6ysM5eA_BAfomJHB5-35" value="" style="group" vertex="1" connectable="0" parent="1">
                    <mxGeometry x="910" y="1000" width="620" height="130" as="geometry"/>
                </mxCell>
                <mxCell id="VUT6ysM5eA_BAfomJHB5-36" value="" style="rounded=0;whiteSpace=wrap;html=1;" vertex="1" parent="VUT6ysM5eA_BAfomJHB5-35">
                    <mxGeometry width="170" height="130" as="geometry"/>
                </mxCell>
                <mxCell id="VUT6ysM5eA_BAfomJHB5-37" value="" style="rounded=0;whiteSpace=wrap;html=1;" vertex="1" parent="VUT6ysM5eA_BAfomJHB5-35">
                    <mxGeometry x="225" width="170" height="130" as="geometry"/>
                </mxCell>
                <mxCell id="VUT6ysM5eA_BAfomJHB5-38" value="" style="rounded=0;whiteSpace=wrap;html=1;" vertex="1" parent="VUT6ysM5eA_BAfomJHB5-35">
                    <mxGeometry x="450" width="170" height="130" as="geometry"/>
                </mxCell>
                <mxCell id="VUT6ysM5eA_BAfomJHB5-39" value="Studio" style="text;html=1;strokeColor=none;fillColor=none;align=center;verticalAlign=middle;whiteSpace=wrap;rounded=0;" vertex="1" parent="VUT6ysM5eA_BAfomJHB5-35">
                    <mxGeometry x="55" y="50" width="60" height="30" as="geometry"/>
                </mxCell>
                <mxCell id="VUT6ysM5eA_BAfomJHB5-40" value="Studio" style="text;html=1;strokeColor=none;fillColor=none;align=center;verticalAlign=middle;whiteSpace=wrap;rounded=0;" vertex="1" parent="VUT6ysM5eA_BAfomJHB5-35">
                    <mxGeometry x="280" y="50" width="60" height="30" as="geometry"/>
                </mxCell>
                <mxCell id="VUT6ysM5eA_BAfomJHB5-41" value="Studio" style="text;html=1;strokeColor=none;fillColor=none;align=center;verticalAlign=middle;whiteSpace=wrap;rounded=0;" vertex="1" parent="VUT6ysM5eA_BAfomJHB5-35">
                    <mxGeometry x="505" y="50" width="60" height="30" as="geometry"/>
                </mxCell>
                <mxCell id="VUT6ysM5eA_BAfomJHB5-43" value="Scroll down to keep seeing new studio" style="shape=note;whiteSpace=wrap;html=1;backgroundOutline=1;darkOpacity=0.05;fontSize=16;size=16;fillColor=#e3c800;fontColor=#000000;strokeColor=#B09500;" vertex="1" parent="1">
                    <mxGeometry x="1630" y="640" width="216" height="80" as="geometry"/>
                </mxCell>
                <mxCell id="VUT6ysM5eA_BAfomJHB5-44" value="&lt;span style=&quot;font-size: 19px;&quot;&gt;Filter By Location&lt;/span&gt;" style="rounded=0;whiteSpace=wrap;html=1;" vertex="1" parent="1">
                    <mxGeometry x="210" y="250" width="380" height="60" as="geometry"/>
                </mxCell>
                <mxCell id="VUT6ysM5eA_BAfomJHB5-45" value="&lt;span style=&quot;font-size: 19px;&quot;&gt;Filter By Location&lt;/span&gt;" style="rounded=0;whiteSpace=wrap;html=1;" vertex="1" parent="1">
                    <mxGeometry x="1030" y="250" width="380" height="60" as="geometry"/>
                </mxCell>
                <mxCell id="VUT6ysM5eA_BAfomJHB5-46" value="" style="triangle;whiteSpace=wrap;html=1;rotation=90;" vertex="1" parent="1">
                    <mxGeometry x="540" y="260" width="20" height="60" as="geometry"/>
                </mxCell>
                <mxCell id="VUT6ysM5eA_BAfomJHB5-47" value="Filter and will directly go to another page with filtering apply already" style="shape=note;whiteSpace=wrap;html=1;backgroundOutline=1;darkOpacity=0.05;fontSize=16;size=16;fillColor=#e3c800;fontColor=#000000;strokeColor=#B09500;" vertex="1" parent="1">
                    <mxGeometry x="611" y="240" width="216" height="80" as="geometry"/>
                </mxCell>
                <mxCell id="VUT6ysM5eA_BAfomJHB5-48" value="" style="triangle;whiteSpace=wrap;html=1;rotation=90;" vertex="1" parent="1">
                    <mxGeometry x="1361" y="250" width="20" height="60" as="geometry"/>
                </mxCell>
                <mxCell id="VUT6ysM5eA_BAfomJHB5-49" value="Select Location and will filter in below&amp;nbsp;" style="shape=note;whiteSpace=wrap;html=1;backgroundOutline=1;darkOpacity=0.05;fontSize=16;size=16;fillColor=#e3c800;fontColor=#000000;strokeColor=#B09500;" vertex="1" parent="1">
                    <mxGeometry x="1470" y="240" width="216" height="80" as="geometry"/>
                </mxCell>
                <mxCell id="VUT6ysM5eA_BAfomJHB5-51" value="" style="endArrow=classic;html=1;exitX=1;exitY=0.5;exitDx=0;exitDy=0;entryX=0;entryY=0.376;entryDx=0;entryDy=0;entryPerimeter=0;" edge="1" parent="1" source="UAYd5caJNevbsGcPPv3U-1" target="UAYd5caJNevbsGcPPv3U-8">
                    <mxGeometry width="50" height="50" relative="1" as="geometry">
                        <mxPoint x="890" y="630" as="sourcePoint"/>
                        <mxPoint x="940" y="580" as="targetPoint"/>
                    </mxGeometry>
                </mxCell>
                <mxCell id="VUT6ysM5eA_BAfomJHB5-53" value="Click and land to all studio page" style="edgeLabel;html=1;align=center;verticalAlign=middle;resizable=0;points=[];" vertex="1" connectable="0" parent="VUT6ysM5eA_BAfomJHB5-51">
                    <mxGeometry x="0.1059" y="-2" relative="1" as="geometry">
                        <mxPoint x="-32" y="-5" as="offset"/>
                    </mxGeometry>
                </mxCell>
            </root>
        </mxGraphModel>
    </diagram>
    <diagram id="8OXty5Gxbtx6MMyfNj04" name="Booking">
        <mxGraphModel dx="2132" dy="2463" grid="1" gridSize="10" guides="1" tooltips="1" connect="1" arrows="1" fold="1" page="1" pageScale="1" pageWidth="827" pageHeight="1169" math="0" shadow="0">
            <root>
                <mxCell id="0"/>
                <mxCell id="1" parent="0"/>
                <mxCell id="QXZGMtVZFrHZfIXMCrvq-11" value="" style="rounded=0;whiteSpace=wrap;html=1;" vertex="1" parent="1">
                    <mxGeometry x="430" y="295" width="450" height="745" as="geometry"/>
                </mxCell>
                <mxCell id="M0S_jhgfYNuhQNbrrUq5-1" value="Studio Image" style="rounded=0;whiteSpace=wrap;html=1;" parent="1" vertex="1">
                    <mxGeometry x="10" width="790" height="270" as="geometry"/>
                </mxCell>
                <mxCell id="M0S_jhgfYNuhQNbrrUq5-2" value="" style="triangle;whiteSpace=wrap;html=1;" parent="1" vertex="1">
                    <mxGeometry x="760" y="110" width="20" height="50" as="geometry"/>
                </mxCell>
                <mxCell id="M0S_jhgfYNuhQNbrrUq5-5" value="&lt;font style=&quot;font-size: 12px;&quot;&gt;Address: xxxxxxxxxxxxxxxxxx&lt;/font&gt;" style="text;html=1;strokeColor=none;fillColor=none;align=center;verticalAlign=middle;whiteSpace=wrap;rounded=0;fontSize=20;" parent="1" vertex="1">
                    <mxGeometry x="100" y="320" width="170" height="30" as="geometry"/>
                </mxCell>
                <mxCell id="M0S_jhgfYNuhQNbrrUq5-3" value="" style="triangle;whiteSpace=wrap;html=1;rotation=-180;" parent="1" vertex="1">
                    <mxGeometry x="20" y="110" width="20" height="50" as="geometry"/>
                </mxCell>
                <mxCell id="_VZtuzX2ugD6WYGwY0Ov-7" value="Booking Request" style="text;html=1;strokeColor=none;fillColor=none;align=center;verticalAlign=middle;whiteSpace=wrap;rounded=0;fontSize=15;" parent="1" vertex="1">
                    <mxGeometry x="470" y="310" width="140" height="30" as="geometry"/>
                </mxCell>
                <mxCell id="HgNhOC8vcGWkcyASPBqy-1" value="&lt;font style=&quot;font-size: 20px;&quot;&gt;Studio Name&lt;/font&gt;" style="text;html=1;align=center;verticalAlign=middle;resizable=0;points=[];autosize=1;strokeColor=none;fillColor=none;" parent="1" vertex="1">
                    <mxGeometry x="95" y="290" width="140" height="40" as="geometry"/>
                </mxCell>
                <mxCell id="HgNhOC8vcGWkcyASPBqy-5" value="荔枝角" style="text;html=1;strokeColor=none;fillColor=none;align=center;verticalAlign=middle;whiteSpace=wrap;rounded=0;fontSize=9;fontStyle=2" parent="1" vertex="1">
                    <mxGeometry x="220" y="295" width="60" height="30" as="geometry"/>
                </mxCell>
                <mxCell id="HgNhOC8vcGWkcyASPBqy-6" value="Studio Icon" style="ellipse;whiteSpace=wrap;html=1;aspect=fixed;" parent="1" vertex="1">
                    <mxGeometry x="15" y="280" width="80" height="80" as="geometry"/>
                </mxCell>
                <mxCell id="HgNhOC8vcGWkcyASPBqy-30" value="" style="group" parent="1" vertex="1" connectable="0">
                    <mxGeometry x="30" y="390" width="310" height="421.74" as="geometry"/>
                </mxCell>
                <mxCell id="_VZtuzX2ugD6WYGwY0Ov-3" value="Price List" style="text;html=1;strokeColor=none;fillColor=none;align=center;verticalAlign=middle;whiteSpace=wrap;rounded=0;" parent="HgNhOC8vcGWkcyASPBqy-30" vertex="1">
                    <mxGeometry y="250.74" width="60" height="30" as="geometry"/>
                </mxCell>
                <mxCell id="_VZtuzX2ugD6WYGwY0Ov-4" value="" style="endArrow=none;html=1;rounded=0;" parent="HgNhOC8vcGWkcyASPBqy-30" edge="1">
                    <mxGeometry width="50" height="50" relative="1" as="geometry">
                        <mxPoint y="31" as="sourcePoint"/>
                        <mxPoint x="100" y="31" as="targetPoint"/>
                    </mxGeometry>
                </mxCell>
                <mxCell id="_VZtuzX2ugD6WYGwY0Ov-5" value="" style="endArrow=none;html=1;rounded=0;" parent="HgNhOC8vcGWkcyASPBqy-30" edge="1">
                    <mxGeometry width="50" height="50" relative="1" as="geometry">
                        <mxPoint y="280.74" as="sourcePoint"/>
                        <mxPoint x="100" y="280.74" as="targetPoint"/>
                    </mxGeometry>
                </mxCell>
                <mxCell id="HgNhOC8vcGWkcyASPBqy-2" value="Description" style="text;html=1;strokeColor=none;fillColor=none;align=center;verticalAlign=middle;whiteSpace=wrap;rounded=0;" parent="HgNhOC8vcGWkcyASPBqy-30" vertex="1">
                    <mxGeometry width="60" height="30" as="geometry"/>
                </mxCell>
                <mxCell id="HgNhOC8vcGWkcyASPBqy-3" value="" style="endArrow=none;html=1;rounded=0;" parent="HgNhOC8vcGWkcyASPBqy-30" edge="1">
                    <mxGeometry width="50" height="50" relative="1" as="geometry">
                        <mxPoint y="145.74" as="sourcePoint"/>
                        <mxPoint x="100" y="145.74" as="targetPoint"/>
                    </mxGeometry>
                </mxCell>
                <mxCell id="HgNhOC8vcGWkcyASPBqy-4" value="場地設施" style="text;html=1;strokeColor=none;fillColor=none;align=center;verticalAlign=middle;whiteSpace=wrap;rounded=0;" parent="HgNhOC8vcGWkcyASPBqy-30" vertex="1">
                    <mxGeometry y="115.74000000000001" width="60" height="30" as="geometry"/>
                </mxCell>
                <mxCell id="HgNhOC8vcGWkcyASPBqy-10" value="" style="ellipse;whiteSpace=wrap;html=1;aspect=fixed;" parent="HgNhOC8vcGWkcyASPBqy-30" vertex="1">
                    <mxGeometry x="6" y="155.74" width="10" height="10" as="geometry"/>
                </mxCell>
                <mxCell id="HgNhOC8vcGWkcyASPBqy-11" value="" style="ellipse;whiteSpace=wrap;html=1;aspect=fixed;" parent="HgNhOC8vcGWkcyASPBqy-30" vertex="1">
                    <mxGeometry x="6" y="195.74" width="10" height="10" as="geometry"/>
                </mxCell>
                <mxCell id="HgNhOC8vcGWkcyASPBqy-12" value="" style="ellipse;whiteSpace=wrap;html=1;aspect=fixed;" parent="HgNhOC8vcGWkcyASPBqy-30" vertex="1">
                    <mxGeometry x="6" y="175.74" width="10" height="10" as="geometry"/>
                </mxCell>
                <mxCell id="HgNhOC8vcGWkcyASPBqy-14" value="" style="ellipse;whiteSpace=wrap;html=1;aspect=fixed;" parent="HgNhOC8vcGWkcyASPBqy-30" vertex="1">
                    <mxGeometry x="6" y="215.74" width="10" height="10" as="geometry"/>
                </mxCell>
                <mxCell id="HgNhOC8vcGWkcyASPBqy-15" value="" style="ellipse;whiteSpace=wrap;html=1;aspect=fixed;" parent="HgNhOC8vcGWkcyASPBqy-30" vertex="1">
                    <mxGeometry x="150" y="155.74" width="10" height="10" as="geometry"/>
                </mxCell>
                <mxCell id="HgNhOC8vcGWkcyASPBqy-16" value="" style="ellipse;whiteSpace=wrap;html=1;aspect=fixed;" parent="HgNhOC8vcGWkcyASPBqy-30" vertex="1">
                    <mxGeometry x="150" y="175.74" width="10" height="10" as="geometry"/>
                </mxCell>
                <mxCell id="HgNhOC8vcGWkcyASPBqy-17" value="" style="ellipse;whiteSpace=wrap;html=1;aspect=fixed;" parent="HgNhOC8vcGWkcyASPBqy-30" vertex="1">
                    <mxGeometry x="150" y="195.74" width="10" height="10" as="geometry"/>
                </mxCell>
                <mxCell id="HgNhOC8vcGWkcyASPBqy-18" value="" style="ellipse;whiteSpace=wrap;html=1;aspect=fixed;" parent="HgNhOC8vcGWkcyASPBqy-30" vertex="1">
                    <mxGeometry x="150" y="215.74" width="10" height="10" as="geometry"/>
                </mxCell>
                <mxCell id="HgNhOC8vcGWkcyASPBqy-19" value="xxxxxx | xxxx | xxxx" style="text;html=1;strokeColor=none;fillColor=none;align=left;verticalAlign=middle;whiteSpace=wrap;rounded=0;" parent="HgNhOC8vcGWkcyASPBqy-30" vertex="1">
                    <mxGeometry y="31.74000000000001" width="210" height="30" as="geometry"/>
                </mxCell>
                <mxCell id="HgNhOC8vcGWkcyASPBqy-20" value="xxxxxx | xxxx | xxxx" style="text;html=1;strokeColor=none;fillColor=none;align=left;verticalAlign=middle;whiteSpace=wrap;rounded=0;" parent="HgNhOC8vcGWkcyASPBqy-30" vertex="1">
                    <mxGeometry y="51.74000000000001" width="210" height="30" as="geometry"/>
                </mxCell>
                <mxCell id="HgNhOC8vcGWkcyASPBqy-21" value="xxxxxx | xxxx | xxxx" style="text;html=1;strokeColor=none;fillColor=none;align=left;verticalAlign=middle;whiteSpace=wrap;rounded=0;" parent="HgNhOC8vcGWkcyASPBqy-30" vertex="1">
                    <mxGeometry y="71.74000000000001" width="210" height="30" as="geometry"/>
                </mxCell>
                <mxCell id="HgNhOC8vcGWkcyASPBqy-22" value="xxxxxx" style="text;html=1;strokeColor=none;fillColor=none;align=left;verticalAlign=middle;whiteSpace=wrap;rounded=0;" parent="HgNhOC8vcGWkcyASPBqy-30" vertex="1">
                    <mxGeometry x="20" y="145.74" width="70" height="30" as="geometry"/>
                </mxCell>
                <mxCell id="HgNhOC8vcGWkcyASPBqy-23" value="xxxxxx" style="text;html=1;strokeColor=none;fillColor=none;align=left;verticalAlign=middle;whiteSpace=wrap;rounded=0;" parent="HgNhOC8vcGWkcyASPBqy-30" vertex="1">
                    <mxGeometry x="20" y="165.74" width="70" height="30" as="geometry"/>
                </mxCell>
                <mxCell id="HgNhOC8vcGWkcyASPBqy-24" value="xxxxxx" style="text;html=1;strokeColor=none;fillColor=none;align=left;verticalAlign=middle;whiteSpace=wrap;rounded=0;" parent="HgNhOC8vcGWkcyASPBqy-30" vertex="1">
                    <mxGeometry x="20" y="185.74" width="70" height="30" as="geometry"/>
                </mxCell>
                <mxCell id="HgNhOC8vcGWkcyASPBqy-25" value="xxxxxx" style="text;html=1;strokeColor=none;fillColor=none;align=left;verticalAlign=middle;whiteSpace=wrap;rounded=0;" parent="HgNhOC8vcGWkcyASPBqy-30" vertex="1">
                    <mxGeometry x="20" y="205.74" width="70" height="30" as="geometry"/>
                </mxCell>
                <mxCell id="HgNhOC8vcGWkcyASPBqy-26" value="xxxxxx" style="text;html=1;strokeColor=none;fillColor=none;align=left;verticalAlign=middle;whiteSpace=wrap;rounded=0;" parent="HgNhOC8vcGWkcyASPBqy-30" vertex="1">
                    <mxGeometry x="170" y="145.74" width="70" height="30" as="geometry"/>
                </mxCell>
                <mxCell id="HgNhOC8vcGWkcyASPBqy-27" value="xxxxxx" style="text;html=1;strokeColor=none;fillColor=none;align=left;verticalAlign=middle;whiteSpace=wrap;rounded=0;" parent="HgNhOC8vcGWkcyASPBqy-30" vertex="1">
                    <mxGeometry x="170" y="165.74" width="70" height="30" as="geometry"/>
                </mxCell>
                <mxCell id="HgNhOC8vcGWkcyASPBqy-28" value="xxxxxx" style="text;html=1;strokeColor=none;fillColor=none;align=left;verticalAlign=middle;whiteSpace=wrap;rounded=0;" parent="HgNhOC8vcGWkcyASPBqy-30" vertex="1">
                    <mxGeometry x="170" y="185.74" width="70" height="30" as="geometry"/>
                </mxCell>
                <mxCell id="HgNhOC8vcGWkcyASPBqy-29" value="xxxxxx" style="text;html=1;strokeColor=none;fillColor=none;align=left;verticalAlign=middle;whiteSpace=wrap;rounded=0;" parent="HgNhOC8vcGWkcyASPBqy-30" vertex="1">
                    <mxGeometry x="170" y="205.74" width="70" height="30" as="geometry"/>
                </mxCell>
                <mxCell id="QXZGMtVZFrHZfIXMCrvq-17" value="xxxxxx | xxxx | xxxx" style="text;html=1;strokeColor=none;fillColor=none;align=left;verticalAlign=middle;whiteSpace=wrap;rounded=0;" vertex="1" parent="HgNhOC8vcGWkcyASPBqy-30">
                    <mxGeometry y="290" width="210" height="30" as="geometry"/>
                </mxCell>
                <mxCell id="bI_TuVFxWTkyKml1O8rU-1" value="Calendar" style="rounded=0;whiteSpace=wrap;html=1;strokeColor=#FFFFFF;" vertex="1" parent="1">
                    <mxGeometry x="480" y="380" width="160" height="150" as="geometry"/>
                </mxCell>
                <mxCell id="bI_TuVFxWTkyKml1O8rU-3" value="Choose upcoming 30 days" style="text;html=1;strokeColor=none;fillColor=none;align=left;verticalAlign=middle;whiteSpace=wrap;rounded=0;" vertex="1" parent="1">
                    <mxGeometry x="480" y="350" width="170" height="30" as="geometry"/>
                </mxCell>
                <mxCell id="bI_TuVFxWTkyKml1O8rU-5" value="Pick a Time" style="text;html=1;strokeColor=none;fillColor=none;align=left;verticalAlign=middle;whiteSpace=wrap;rounded=0;" vertex="1" parent="1">
                    <mxGeometry x="480" y="540" width="170" height="30" as="geometry"/>
                </mxCell>
                <mxCell id="bI_TuVFxWTkyKml1O8rU-9" value="" style="edgeStyle=none;html=1;" edge="1" parent="1" source="bI_TuVFxWTkyKml1O8rU-8" target="bI_TuVFxWTkyKml1O8rU-5">
                    <mxGeometry relative="1" as="geometry"/>
                </mxCell>
                <mxCell id="bI_TuVFxWTkyKml1O8rU-8" value="08:00" style="rounded=1;whiteSpace=wrap;html=1;strokeColor=#FFFFFF;" vertex="1" parent="1">
                    <mxGeometry x="480" y="570.87" width="60" height="19.13" as="geometry"/>
                </mxCell>
                <mxCell id="bI_TuVFxWTkyKml1O8rU-10" value="08:30" style="rounded=1;whiteSpace=wrap;html=1;strokeColor=#FFFFFF;" vertex="1" parent="1">
                    <mxGeometry x="550" y="570.87" width="60" height="19.13" as="geometry"/>
                </mxCell>
                <mxCell id="bI_TuVFxWTkyKml1O8rU-11" value="09:00" style="rounded=1;whiteSpace=wrap;html=1;strokeColor=#FFFFFF;" vertex="1" parent="1">
                    <mxGeometry x="620" y="570.87" width="60" height="19.13" as="geometry"/>
                </mxCell>
                <mxCell id="bI_TuVFxWTkyKml1O8rU-12" value="09:30" style="rounded=1;whiteSpace=wrap;html=1;strokeColor=#FFFFFF;" vertex="1" parent="1">
                    <mxGeometry x="690" y="570.87" width="60" height="19.13" as="geometry"/>
                </mxCell>
                <mxCell id="bI_TuVFxWTkyKml1O8rU-13" value="10:00" style="rounded=1;whiteSpace=wrap;html=1;strokeColor=#FFFFFF;" vertex="1" parent="1">
                    <mxGeometry x="760" y="570.87" width="60" height="19.13" as="geometry"/>
                </mxCell>
                <mxCell id="bI_TuVFxWTkyKml1O8rU-14" value="10:30" style="rounded=1;whiteSpace=wrap;html=1;strokeColor=#FFFFFF;" vertex="1" parent="1">
                    <mxGeometry x="480" y="600" width="60" height="19.13" as="geometry"/>
                </mxCell>
                <mxCell id="bI_TuVFxWTkyKml1O8rU-15" value="11:00" style="rounded=1;whiteSpace=wrap;html=1;strokeColor=#FFFFFF;" vertex="1" parent="1">
                    <mxGeometry x="550" y="600" width="60" height="19.13" as="geometry"/>
                </mxCell>
                <mxCell id="bI_TuVFxWTkyKml1O8rU-17" value="11:30" style="rounded=1;whiteSpace=wrap;html=1;strokeColor=#FFFFFF;" vertex="1" parent="1">
                    <mxGeometry x="620" y="600" width="60" height="19.13" as="geometry"/>
                </mxCell>
                <mxCell id="bI_TuVFxWTkyKml1O8rU-18" value="12:00" style="rounded=1;whiteSpace=wrap;html=1;strokeColor=#FFFFFF;" vertex="1" parent="1">
                    <mxGeometry x="690" y="600" width="60" height="19.13" as="geometry"/>
                </mxCell>
                <mxCell id="bI_TuVFxWTkyKml1O8rU-19" value="12:30" style="rounded=1;whiteSpace=wrap;html=1;strokeColor=#FFFFFF;" vertex="1" parent="1">
                    <mxGeometry x="760" y="600" width="60" height="19.13" as="geometry"/>
                </mxCell>
                <mxCell id="bI_TuVFxWTkyKml1O8rU-20" value="" style="edgeStyle=none;html=1;" edge="1" parent="1" source="bI_TuVFxWTkyKml1O8rU-21">
                    <mxGeometry relative="1" as="geometry">
                        <mxPoint x="532.5643797916259" y="629.9999999999999" as="targetPoint"/>
                    </mxGeometry>
                </mxCell>
                <mxCell id="bI_TuVFxWTkyKml1O8rU-21" value="13:00" style="rounded=1;whiteSpace=wrap;html=1;strokeColor=#FFFFFF;" vertex="1" parent="1">
                    <mxGeometry x="480" y="630.87" width="60" height="19.13" as="geometry"/>
                </mxCell>
                <mxCell id="bI_TuVFxWTkyKml1O8rU-22" value="13:30" style="rounded=1;whiteSpace=wrap;html=1;strokeColor=#FFFFFF;" vertex="1" parent="1">
                    <mxGeometry x="550" y="630.87" width="60" height="19.13" as="geometry"/>
                </mxCell>
                <mxCell id="bI_TuVFxWTkyKml1O8rU-23" value="&lt;font color=&quot;#6a6262&quot;&gt;14:00&lt;/font&gt;" style="rounded=1;whiteSpace=wrap;html=1;strokeColor=#666666;fillColor=#808080;fontColor=#333333;gradientColor=none;" vertex="1" parent="1">
                    <mxGeometry x="620" y="630.87" width="60" height="19.13" as="geometry"/>
                </mxCell>
                <mxCell id="bI_TuVFxWTkyKml1O8rU-24" value="&lt;font color=&quot;#6a6262&quot;&gt;14:30&lt;/font&gt;" style="rounded=1;whiteSpace=wrap;html=1;strokeColor=#666666;fillColor=#808080;fontColor=#333333;gradientColor=none;" vertex="1" parent="1">
                    <mxGeometry x="690" y="630.87" width="60" height="19.13" as="geometry"/>
                </mxCell>
                <mxCell id="bI_TuVFxWTkyKml1O8rU-25" value="15:00" style="rounded=1;whiteSpace=wrap;html=1;strokeColor=#FFFFFF;" vertex="1" parent="1">
                    <mxGeometry x="760" y="630.87" width="60" height="19.13" as="geometry"/>
                </mxCell>
                <mxCell id="bI_TuVFxWTkyKml1O8rU-26" value="15:30" style="rounded=1;whiteSpace=wrap;html=1;strokeColor=#FFFFFF;" vertex="1" parent="1">
                    <mxGeometry x="480" y="660" width="60" height="19.13" as="geometry"/>
                </mxCell>
                <mxCell id="bI_TuVFxWTkyKml1O8rU-27" value="16:00" style="rounded=1;whiteSpace=wrap;html=1;strokeColor=#FFFFFF;" vertex="1" parent="1">
                    <mxGeometry x="550" y="660" width="60" height="19.13" as="geometry"/>
                </mxCell>
                <mxCell id="bI_TuVFxWTkyKml1O8rU-28" value="16:30" style="rounded=1;whiteSpace=wrap;html=1;strokeColor=#BD7000;fillColor=#f0a30a;fontColor=#000000;" vertex="1" parent="1">
                    <mxGeometry x="620" y="660" width="60" height="19.13" as="geometry"/>
                </mxCell>
                <mxCell id="bI_TuVFxWTkyKml1O8rU-29" value="17:00" style="rounded=1;whiteSpace=wrap;html=1;strokeColor=#BD7000;fillColor=#f0a30a;fontColor=#000000;" vertex="1" parent="1">
                    <mxGeometry x="690" y="660" width="60" height="19.13" as="geometry"/>
                </mxCell>
                <mxCell id="bI_TuVFxWTkyKml1O8rU-30" value="17:30" style="rounded=1;whiteSpace=wrap;html=1;strokeColor=#FFFFFF;" vertex="1" parent="1">
                    <mxGeometry x="760" y="660" width="60" height="19.13" as="geometry"/>
                </mxCell>
                <mxCell id="QXZGMtVZFrHZfIXMCrvq-1" value="Booked timeslot will grey out. Only when&amp;nbsp;" style="shape=note;whiteSpace=wrap;html=1;backgroundOutline=1;darkOpacity=0.05;fontSize=16;size=16;fillColor=#e3c800;fontColor=#000000;strokeColor=#B09500;" vertex="1" parent="1">
                    <mxGeometry x="920" y="510" width="310" height="40" as="geometry"/>
                </mxCell>
                <mxCell id="QXZGMtVZFrHZfIXMCrvq-2" value="User picked timeslot will be highlighted" style="shape=note;whiteSpace=wrap;html=1;backgroundOutline=1;darkOpacity=0.05;fontSize=16;size=16;fillColor=#e3c800;fontColor=#000000;strokeColor=#B09500;" vertex="1" parent="1">
                    <mxGeometry x="920" y="700" width="216" height="50" as="geometry"/>
                </mxCell>
                <mxCell id="QXZGMtVZFrHZfIXMCrvq-3" value="The available time range depends on studio owner's opening and closing time." style="shape=note;whiteSpace=wrap;html=1;backgroundOutline=1;darkOpacity=0.05;fontSize=16;size=16;fillColor=#e3c800;fontColor=#000000;strokeColor=#B09500;" vertex="1" parent="1">
                    <mxGeometry x="920" y="760" width="216" height="70" as="geometry"/>
                </mxCell>
                <mxCell id="QXZGMtVZFrHZfIXMCrvq-6" value="Your Booking: 23/12/2023 16:30 - 17:00&lt;br&gt;&amp;nbsp; &amp;nbsp; &amp;nbsp; &amp;nbsp; &amp;nbsp; &amp;nbsp; &amp;nbsp; &amp;nbsp; &amp;nbsp; &amp;nbsp; &amp;nbsp; &amp;nbsp; 23/12/2023 17:00 - 17:30" style="text;html=1;strokeColor=none;fillColor=none;align=center;verticalAlign=middle;whiteSpace=wrap;rounded=0;fontColor=#FFFFFF;" vertex="1" parent="1">
                    <mxGeometry x="480" y="700" width="220" height="30" as="geometry"/>
                </mxCell>
                <mxCell id="_VZtuzX2ugD6WYGwY0Ov-22" value="Send Request" style="rounded=1;whiteSpace=wrap;html=1;" parent="1" vertex="1">
                    <mxGeometry x="570" y="950" width="110" height="35" as="geometry"/>
                </mxCell>
                <mxCell id="_VZtuzX2ugD6WYGwY0Ov-16" value="Name" style="text;html=1;strokeColor=none;fillColor=none;align=center;verticalAlign=middle;whiteSpace=wrap;rounded=0;" parent="1" vertex="1">
                    <mxGeometry x="480" y="790" width="60" height="30" as="geometry"/>
                </mxCell>
                <mxCell id="_VZtuzX2ugD6WYGwY0Ov-18" value="Contact" style="text;html=1;strokeColor=none;fillColor=none;align=center;verticalAlign=middle;whiteSpace=wrap;rounded=0;" parent="1" vertex="1">
                    <mxGeometry x="480" y="840" width="60" height="30" as="geometry"/>
                </mxCell>
                <mxCell id="_VZtuzX2ugD6WYGwY0Ov-20" value="Remarks" style="text;html=1;strokeColor=none;fillColor=none;align=center;verticalAlign=middle;whiteSpace=wrap;rounded=0;" parent="1" vertex="1">
                    <mxGeometry x="480" y="890" width="60" height="30" as="geometry"/>
                </mxCell>
                <mxCell id="QXZGMtVZFrHZfIXMCrvq-10" value="Fill your information" style="text;html=1;strokeColor=none;fillColor=none;align=center;verticalAlign=middle;whiteSpace=wrap;rounded=0;fontColor=#FFFFFF;fontStyle=1" vertex="1" parent="1">
                    <mxGeometry x="480" y="760" width="120" height="30" as="geometry"/>
                </mxCell>
                <mxCell id="bI_TuVFxWTkyKml1O8rU-2" value="" style="group" vertex="1" connectable="0" parent="1">
                    <mxGeometry x="480" y="790" width="310" height="130" as="geometry"/>
                </mxCell>
                <mxCell id="_VZtuzX2ugD6WYGwY0Ov-15" value="" style="rounded=0;whiteSpace=wrap;html=1;" parent="bI_TuVFxWTkyKml1O8rU-2" vertex="1">
                    <mxGeometry x="70" width="240" height="30" as="geometry"/>
                </mxCell>
                <mxCell id="_VZtuzX2ugD6WYGwY0Ov-17" value="" style="rounded=0;whiteSpace=wrap;html=1;" parent="1" vertex="1">
                    <mxGeometry x="550" y="835" width="240" height="30" as="geometry"/>
                </mxCell>
                <mxCell id="_VZtuzX2ugD6WYGwY0Ov-19" value="" style="rounded=0;whiteSpace=wrap;html=1;" parent="1" vertex="1">
                    <mxGeometry x="550" y="890" width="240" height="30" as="geometry"/>
                </mxCell>
                <mxCell id="QXZGMtVZFrHZfIXMCrvq-16" value="After submit the request, this booking request form will change to a thank you page. AJAX" style="shape=note;whiteSpace=wrap;html=1;backgroundOutline=1;darkOpacity=0.05;fontSize=16;size=16;fillColor=#e3c800;fontColor=#000000;strokeColor=#B09500;" vertex="1" parent="1">
                    <mxGeometry x="1740" y="970" width="216" height="105" as="geometry"/>
                </mxCell>
                <mxCell id="Dqy6vUOpYm2c9LvL6oSq-39" value="" style="group" vertex="1" connectable="0" parent="1">
                    <mxGeometry x="1250" y="327.5" width="460" height="795" as="geometry"/>
                </mxCell>
                <mxCell id="Dqy6vUOpYm2c9LvL6oSq-41" value="" style="rounded=0;whiteSpace=wrap;html=1;" vertex="1" parent="Dqy6vUOpYm2c9LvL6oSq-39">
                    <mxGeometry y="-30" width="460" height="795" as="geometry"/>
                </mxCell>
                <mxCell id="Dqy6vUOpYm2c9LvL6oSq-3" value="We have recieved your booking request. The studio owner will cotact you shortly." style="text;html=1;strokeColor=none;fillColor=none;align=center;verticalAlign=middle;whiteSpace=wrap;rounded=0;fontSize=15;" vertex="1" parent="Dqy6vUOpYm2c9LvL6oSq-39">
                    <mxGeometry x="70" y="209.5" width="320" height="30" as="geometry"/>
                </mxCell>
                <mxCell id="Dqy6vUOpYm2c9LvL6oSq-29" value="Your Booking: 23/12/2023 16:30 - 17:00&lt;br&gt;&amp;nbsp; &amp;nbsp; &amp;nbsp; &amp;nbsp; &amp;nbsp; &amp;nbsp; &amp;nbsp; &amp;nbsp; &amp;nbsp; &amp;nbsp; &amp;nbsp; &amp;nbsp; 23/12/2023 17:00 - 17:30" style="text;html=1;strokeColor=none;fillColor=none;align=center;verticalAlign=middle;whiteSpace=wrap;rounded=0;fontColor=#FFFFFF;" vertex="1" parent="Dqy6vUOpYm2c9LvL6oSq-39">
                    <mxGeometry x="110" y="274.5" width="220" height="30" as="geometry"/>
                </mxCell>
                <mxCell id="Dqy6vUOpYm2c9LvL6oSq-42" value="" style="endArrow=classic;html=1;fontSize=20;fontColor=#000000;exitX=1;exitY=0.5;exitDx=0;exitDy=0;entryX=0.002;entryY=0.833;entryDx=0;entryDy=0;entryPerimeter=0;" edge="1" parent="1" source="_VZtuzX2ugD6WYGwY0Ov-22" target="Dqy6vUOpYm2c9LvL6oSq-41">
                    <mxGeometry width="50" height="50" relative="1" as="geometry">
                        <mxPoint x="900" y="690" as="sourcePoint"/>
                        <mxPoint x="950" y="640" as="targetPoint"/>
                    </mxGeometry>
                </mxCell>
                <mxCell id="Ui6eoOiTQsr9A_E51AWH-1" value="" style="rounded=0;whiteSpace=wrap;html=1;" vertex="1" parent="1">
                    <mxGeometry x="10" y="-70" width="790" height="60" as="geometry"/>
                </mxCell>
                <mxCell id="Ui6eoOiTQsr9A_E51AWH-2" value="Logo" style="text;html=1;strokeColor=none;fillColor=none;align=center;verticalAlign=middle;whiteSpace=wrap;rounded=0;fontSize=19;" vertex="1" parent="1">
                    <mxGeometry x="50" y="-55" width="60" height="30" as="geometry"/>
                </mxCell>
                <mxCell id="Ui6eoOiTQsr9A_E51AWH-3" value="Booking" style="text;html=1;strokeColor=none;fillColor=none;align=center;verticalAlign=middle;whiteSpace=wrap;rounded=0;fontSize=19;" vertex="1" parent="1">
                    <mxGeometry x="210" y="-55" width="60" height="30" as="geometry"/>
                </mxCell>
                <mxCell id="Ui6eoOiTQsr9A_E51AWH-4" value="Join Us" style="text;html=1;strokeColor=none;fillColor=none;align=center;verticalAlign=middle;whiteSpace=wrap;rounded=0;fontSize=19;" vertex="1" parent="1">
                    <mxGeometry x="325" y="-55" width="75" height="30" as="geometry"/>
                </mxCell>
                <mxCell id="Ui6eoOiTQsr9A_E51AWH-5" value="&lt;font style=&quot;font-size: 19px;&quot;&gt;Contact&lt;/font&gt;" style="text;html=1;strokeColor=none;fillColor=none;align=center;verticalAlign=middle;whiteSpace=wrap;rounded=0;" vertex="1" parent="1">
                    <mxGeometry x="450" y="-55" width="60" height="30" as="geometry"/>
                </mxCell>
                <mxCell id="Ui6eoOiTQsr9A_E51AWH-6" value="&lt;font style=&quot;font-size: 19px;&quot;&gt;Owner Login&lt;/font&gt;" style="text;html=1;strokeColor=none;fillColor=none;align=center;verticalAlign=middle;whiteSpace=wrap;rounded=0;" vertex="1" parent="1">
                    <mxGeometry x="610" y="-55" width="120" height="30" as="geometry"/>
                </mxCell>
            </root>
        </mxGraphModel>
    </diagram>
    <diagram id="aZtuD4K5TN96j41q5_B5" name="Studio Owner Panel (Request)">
        <mxGraphModel dx="1938" dy="1176" grid="1" gridSize="10" guides="1" tooltips="1" connect="1" arrows="1" fold="1" page="1" pageScale="1" pageWidth="827" pageHeight="1169" math="0" shadow="0">
            <root>
                <mxCell id="0"/>
                <mxCell id="1" parent="0"/>
                <mxCell id="ij_0mPkzBaGhjAz5u0ry-1" value="&lt;font style=&quot;font-size: 19px;&quot;&gt;Owner Profile&lt;/font&gt;" style="ellipse;whiteSpace=wrap;html=1;aspect=fixed;" parent="1" vertex="1">
                    <mxGeometry x="50" y="50" width="180" height="180" as="geometry"/>
                </mxCell>
                <mxCell id="ij_0mPkzBaGhjAz5u0ry-3" value="" style="endArrow=none;html=1;rounded=0;" parent="1" edge="1">
                    <mxGeometry width="50" height="50" relative="1" as="geometry">
                        <mxPoint x="250" y="790" as="sourcePoint"/>
                        <mxPoint x="250" y="270" as="targetPoint"/>
                    </mxGeometry>
                </mxCell>
                <mxCell id="ij_0mPkzBaGhjAz5u0ry-6" value="&lt;font style=&quot;font-size: 19px;&quot;&gt;Booking Request&lt;/font&gt;" style="rounded=0;whiteSpace=wrap;html=1;fillColor=#6a00ff;strokeColor=#3700CC;fontColor=#ffffff;" parent="1" vertex="1">
                    <mxGeometry x="70" y="300" width="130" height="100" as="geometry"/>
                </mxCell>
                <mxCell id="TacmWNrGTuhI36vkOAZd-1" value="&lt;font style=&quot;font-size: 19px;&quot;&gt;Studio Information&lt;/font&gt;" style="rounded=0;whiteSpace=wrap;html=1;" parent="1" vertex="1">
                    <mxGeometry x="70" y="440" width="130" height="100" as="geometry"/>
                </mxCell>
                <mxCell id="TacmWNrGTuhI36vkOAZd-2" value="&lt;font style=&quot;font-size: 19px;&quot;&gt;Hi, Owner!&lt;/font&gt;" style="rounded=0;whiteSpace=wrap;html=1;" parent="1" vertex="1">
                    <mxGeometry x="400" y="50" width="280" height="60" as="geometry"/>
                </mxCell>
                <mxCell id="TStap_zYBxI5_UtpdHbw-2" value="&lt;font style=&quot;font-size: 17px;&quot;&gt;Rejected?&lt;/font&gt;" style="rounded=0;whiteSpace=wrap;html=1;" parent="1" vertex="1">
                    <mxGeometry x="700" y="270" width="90" height="60" as="geometry"/>
                </mxCell>
                <mxCell id="TStap_zYBxI5_UtpdHbw-3" value="&lt;blockquote style=&quot;margin: 0 0 0 40px; border: none; padding: 0px;&quot;&gt;&lt;font style=&quot;font-size: 14px;&quot;&gt;Booking Request with details&lt;/font&gt;&lt;/blockquote&gt;" style="rounded=0;whiteSpace=wrap;html=1;align=left;" parent="1" vertex="1">
                    <mxGeometry x="300" y="370" width="505" height="60" as="geometry"/>
                </mxCell>
                <mxCell id="TStap_zYBxI5_UtpdHbw-4" value="&lt;font style=&quot;font-size: 14px;&quot;&gt;Accept/Decline&lt;br&gt;(For Pending)&lt;/font&gt;" style="text;html=1;strokeColor=none;fillColor=none;align=center;verticalAlign=middle;whiteSpace=wrap;rounded=0;" parent="1" vertex="1">
                    <mxGeometry x="670" y="380" width="110" height="40" as="geometry"/>
                </mxCell>
                <mxCell id="1BiaXeSr-lZ5VBgBRtdc-1" value="&lt;font style=&quot;font-size: 17px;&quot;&gt;Pending&lt;/font&gt;" style="rounded=0;whiteSpace=wrap;html=1;fillColor=#6a00ff;strokeColor=#3700CC;fontColor=#ffffff;" parent="1" vertex="1">
                    <mxGeometry x="310" y="270" width="90" height="60" as="geometry"/>
                </mxCell>
                <mxCell id="TStap_zYBxI5_UtpdHbw-6" value="" style="swimlane;startSize=0;" parent="1" vertex="1">
                    <mxGeometry x="655" y="375" width="140" height="50" as="geometry"/>
                </mxCell>
                <mxCell id="1BiaXeSr-lZ5VBgBRtdc-2" value="&lt;font style=&quot;font-size: 17px;&quot;&gt;Waiting for Payment&lt;/font&gt;" style="rounded=0;whiteSpace=wrap;html=1;" parent="1" vertex="1">
                    <mxGeometry x="440" y="270" width="90" height="60" as="geometry"/>
                </mxCell>
                <mxCell id="TStap_zYBxI5_UtpdHbw-1" value="&lt;font style=&quot;font-size: 17px;&quot;&gt;Approved&lt;/font&gt;" style="rounded=0;whiteSpace=wrap;html=1;" parent="1" vertex="1">
                    <mxGeometry x="570" y="270" width="90" height="60" as="geometry"/>
                </mxCell>
                <mxCell id="TacmWNrGTuhI36vkOAZd-4" value="&lt;font style=&quot;font-size: 19px;&quot;&gt;Logout&lt;/font&gt;" style="rounded=0;whiteSpace=wrap;html=1;" parent="1" vertex="1">
                    <mxGeometry x="70" y="585" width="130" height="100" as="geometry"/>
                </mxCell>
                <mxCell id="TacmWNrGTuhI36vkOAZd-3" value="&lt;span style=&quot;color: rgb(0, 0, 0); font-family: Helvetica; font-size: 19px; font-style: normal; font-variant-ligatures: normal; font-variant-caps: normal; font-weight: 400; letter-spacing: normal; orphans: 2; text-align: center; text-indent: 0px; text-transform: none; widows: 2; word-spacing: 0px; -webkit-text-stroke-width: 0px; background-color: rgb(251, 251, 251); text-decoration-thickness: initial; text-decoration-style: initial; text-decoration-color: initial; float: none; display: inline !important;&quot;&gt;Announcement/ Request reminder&lt;/span&gt;" style="rounded=0;whiteSpace=wrap;html=1;" parent="1" vertex="1">
                    <mxGeometry x="320" y="150" width="440" height="60" as="geometry"/>
                </mxCell>
            </root>
        </mxGraphModel>
    </diagram>
    <diagram name="Studio Owner Panel (Studio Info)" id="CpLTrJA6UWhpIvvV0qsS">
        <mxGraphModel dx="1792" dy="1294" grid="1" gridSize="10" guides="1" tooltips="1" connect="1" arrows="1" fold="1" page="1" pageScale="1" pageWidth="827" pageHeight="1169" math="0" shadow="0">
            <root>
                <mxCell id="K5TGRKnv54WYdZr27yc3-0"/>
                <mxCell id="K5TGRKnv54WYdZr27yc3-1" parent="K5TGRKnv54WYdZr27yc3-0"/>
                <mxCell id="K5TGRKnv54WYdZr27yc3-2" value="&lt;font style=&quot;font-size: 19px;&quot;&gt;Owner Profile&lt;/font&gt;" style="ellipse;whiteSpace=wrap;html=1;aspect=fixed;" parent="K5TGRKnv54WYdZr27yc3-1" vertex="1">
                    <mxGeometry x="50" y="50" width="180" height="180" as="geometry"/>
                </mxCell>
                <mxCell id="K5TGRKnv54WYdZr27yc3-3" value="" style="endArrow=none;html=1;rounded=0;" parent="K5TGRKnv54WYdZr27yc3-1" edge="1">
                    <mxGeometry width="50" height="50" relative="1" as="geometry">
                        <mxPoint x="250" y="790" as="sourcePoint"/>
                        <mxPoint x="250" y="270" as="targetPoint"/>
                    </mxGeometry>
                </mxCell>
                <mxCell id="K5TGRKnv54WYdZr27yc3-4" value="&lt;font style=&quot;font-size: 19px;&quot;&gt;Booking Request&lt;/font&gt;" style="rounded=0;whiteSpace=wrap;html=1;" parent="K5TGRKnv54WYdZr27yc3-1" vertex="1">
                    <mxGeometry x="70" y="300" width="130" height="100" as="geometry"/>
                </mxCell>
                <mxCell id="K5TGRKnv54WYdZr27yc3-5" value="&lt;font style=&quot;font-size: 19px;&quot;&gt;Studio Information&lt;/font&gt;" style="rounded=0;whiteSpace=wrap;html=1;fillColor=#6a00ff;strokeColor=#3700CC;fontColor=#ffffff;" parent="K5TGRKnv54WYdZr27yc3-1" vertex="1">
                    <mxGeometry x="70" y="440" width="130" height="100" as="geometry"/>
                </mxCell>
                <mxCell id="K5TGRKnv54WYdZr27yc3-6" value="&lt;font style=&quot;font-size: 19px;&quot;&gt;Hi, Owner!&lt;/font&gt;" style="rounded=0;whiteSpace=wrap;html=1;" parent="K5TGRKnv54WYdZr27yc3-1" vertex="1">
                    <mxGeometry x="400" y="50" width="280" height="60" as="geometry"/>
                </mxCell>
                <mxCell id="K5TGRKnv54WYdZr27yc3-7" value="&lt;font style=&quot;font-size: 19px;&quot;&gt;Announcement/ Request reminder&lt;/font&gt;" style="rounded=0;whiteSpace=wrap;html=1;" parent="K5TGRKnv54WYdZr27yc3-1" vertex="1">
                    <mxGeometry x="320" y="150" width="440" height="60" as="geometry"/>
                </mxCell>
                <mxCell id="K5TGRKnv54WYdZr27yc3-8" value="&lt;font style=&quot;font-size: 19px;&quot;&gt;Logout&lt;/font&gt;" style="rounded=0;whiteSpace=wrap;html=1;" parent="K5TGRKnv54WYdZr27yc3-1" vertex="1">
                    <mxGeometry x="70" y="585" width="130" height="100" as="geometry"/>
                </mxCell>
                <mxCell id="NzQfSmPhS4v1hPMvOQz8-1" value="" style="rounded=0;whiteSpace=wrap;html=1;movable=1;resizable=1;rotatable=1;deletable=1;editable=1;connectable=1;" parent="K5TGRKnv54WYdZr27yc3-1" vertex="1">
                    <mxGeometry x="270" y="230" width="510" height="770" as="geometry"/>
                </mxCell>
                <mxCell id="k7SAA7eJFqDNoLmVKYPc-1" value="Studio Information" style="text;html=1;strokeColor=none;fillColor=none;align=center;verticalAlign=middle;whiteSpace=wrap;rounded=0;fontSize=15;" parent="K5TGRKnv54WYdZr27yc3-1" vertex="1">
                    <mxGeometry x="290" y="280" width="140" height="30" as="geometry"/>
                </mxCell>
                <mxCell id="k7SAA7eJFqDNoLmVKYPc-2" value="text" style="rounded=0;whiteSpace=wrap;html=1;" parent="K5TGRKnv54WYdZr27yc3-1" vertex="1">
                    <mxGeometry x="440" y="314" width="240" height="30" as="geometry"/>
                </mxCell>
                <mxCell id="k7SAA7eJFqDNoLmVKYPc-3" value="Name*" style="text;html=1;strokeColor=none;fillColor=none;align=center;verticalAlign=middle;whiteSpace=wrap;rounded=0;" parent="K5TGRKnv54WYdZr27yc3-1" vertex="1">
                    <mxGeometry x="360" y="314" width="60" height="30" as="geometry"/>
                </mxCell>
                <mxCell id="k7SAA7eJFqDNoLmVKYPc-4" value="text" style="rounded=0;whiteSpace=wrap;html=1;" parent="K5TGRKnv54WYdZr27yc3-1" vertex="1">
                    <mxGeometry x="440" y="390" width="240" height="30" as="geometry"/>
                </mxCell>
                <mxCell id="k7SAA7eJFqDNoLmVKYPc-5" value="Address*" style="text;html=1;strokeColor=none;fillColor=none;align=center;verticalAlign=middle;whiteSpace=wrap;rounded=0;" parent="K5TGRKnv54WYdZr27yc3-1" vertex="1">
                    <mxGeometry x="370" y="390" width="60" height="30" as="geometry"/>
                </mxCell>
                <mxCell id="k7SAA7eJFqDNoLmVKYPc-6" value="number" style="rounded=0;whiteSpace=wrap;html=1;" parent="K5TGRKnv54WYdZr27yc3-1" vertex="1">
                    <mxGeometry x="440" y="430" width="240" height="30" as="geometry"/>
                </mxCell>
                <mxCell id="k7SAA7eJFqDNoLmVKYPc-7" value="Contact*" style="text;html=1;strokeColor=none;fillColor=none;align=center;verticalAlign=middle;whiteSpace=wrap;rounded=0;" parent="K5TGRKnv54WYdZr27yc3-1" vertex="1">
                    <mxGeometry x="370" y="430" width="60" height="30" as="geometry"/>
                </mxCell>
                <mxCell id="k7SAA7eJFqDNoLmVKYPc-8" value="text" style="rounded=0;whiteSpace=wrap;html=1;" parent="K5TGRKnv54WYdZr27yc3-1" vertex="1">
                    <mxGeometry x="440" y="560" width="240" height="30" as="geometry"/>
                </mxCell>
                <mxCell id="k7SAA7eJFqDNoLmVKYPc-9" value="Price*" style="text;html=1;strokeColor=none;fillColor=none;align=center;verticalAlign=middle;whiteSpace=wrap;rounded=0;" parent="K5TGRKnv54WYdZr27yc3-1" vertex="1">
                    <mxGeometry x="370" y="560" width="60" height="30" as="geometry"/>
                </mxCell>
                <mxCell id="k7SAA7eJFqDNoLmVKYPc-12" value="text" style="rounded=0;whiteSpace=wrap;html=1;" parent="K5TGRKnv54WYdZr27yc3-1" vertex="1">
                    <mxGeometry x="440" y="605" width="240" height="80" as="geometry"/>
                </mxCell>
                <mxCell id="k7SAA7eJFqDNoLmVKYPc-13" value="Description" style="text;html=1;strokeColor=none;fillColor=none;align=center;verticalAlign=middle;whiteSpace=wrap;rounded=0;" parent="K5TGRKnv54WYdZr27yc3-1" vertex="1">
                    <mxGeometry x="370" y="605" width="60" height="30" as="geometry"/>
                </mxCell>
                <mxCell id="k7SAA7eJFqDNoLmVKYPc-14" value="Confirm" style="rounded=1;whiteSpace=wrap;html=1;" parent="K5TGRKnv54WYdZr27yc3-1" vertex="1">
                    <mxGeometry x="485" y="860" width="110" height="35" as="geometry"/>
                </mxCell>
                <mxCell id="k7SAA7eJFqDNoLmVKYPc-15" value="Photos" style="text;html=1;strokeColor=none;fillColor=none;align=center;verticalAlign=middle;whiteSpace=wrap;rounded=0;" parent="K5TGRKnv54WYdZr27yc3-1" vertex="1">
                    <mxGeometry x="370" y="700" width="60" height="30" as="geometry"/>
                </mxCell>
                <mxCell id="k7SAA7eJFqDNoLmVKYPc-16" value="upload image" style="rounded=0;whiteSpace=wrap;html=1;" parent="K5TGRKnv54WYdZr27yc3-1" vertex="1">
                    <mxGeometry x="440" y="700" width="240" height="30" as="geometry"/>
                </mxCell>
                <mxCell id="k7SAA7eJFqDNoLmVKYPc-17" value="&lt;font style=&quot;font-size: 16px;&quot;&gt;Studio Info updated! (Confirm Message)&lt;/font&gt;" style="rounded=0;whiteSpace=wrap;html=1;" parent="K5TGRKnv54WYdZr27yc3-1" vertex="1">
                    <mxGeometry x="360" y="910" width="370" height="60" as="geometry"/>
                </mxCell>
                <mxCell id="3CQ7506Tf0rn0GcnVbkW-1" value="Enquipment" style="text;html=1;strokeColor=none;fillColor=none;align=center;verticalAlign=middle;whiteSpace=wrap;rounded=0;" parent="K5TGRKnv54WYdZr27yc3-1" vertex="1">
                    <mxGeometry x="370" y="797.5" width="60" height="30" as="geometry"/>
                </mxCell>
                <mxCell id="3CQ7506Tf0rn0GcnVbkW-3" value="" style="whiteSpace=wrap;html=1;aspect=fixed;" parent="K5TGRKnv54WYdZr27yc3-1" vertex="1">
                    <mxGeometry x="440" y="800" width="20" height="20" as="geometry"/>
                </mxCell>
                <mxCell id="3CQ7506Tf0rn0GcnVbkW-4" value="" style="whiteSpace=wrap;html=1;aspect=fixed;" parent="K5TGRKnv54WYdZr27yc3-1" vertex="1">
                    <mxGeometry x="440" y="827.5" width="20" height="20" as="geometry"/>
                </mxCell>
                <mxCell id="3CQ7506Tf0rn0GcnVbkW-5" value="" style="whiteSpace=wrap;html=1;aspect=fixed;" parent="K5TGRKnv54WYdZr27yc3-1" vertex="1">
                    <mxGeometry x="560" y="797.5" width="20" height="20" as="geometry"/>
                </mxCell>
                <mxCell id="3CQ7506Tf0rn0GcnVbkW-6" value="" style="whiteSpace=wrap;html=1;aspect=fixed;" parent="K5TGRKnv54WYdZr27yc3-1" vertex="1">
                    <mxGeometry x="560" y="822.5" width="20" height="20" as="geometry"/>
                </mxCell>
                <mxCell id="3CQ7506Tf0rn0GcnVbkW-7" value="" style="verticalLabelPosition=bottom;verticalAlign=top;html=1;shape=mxgraph.basic.tick" parent="K5TGRKnv54WYdZr27yc3-1" vertex="1">
                    <mxGeometry x="445" y="797.5" width="10" height="20" as="geometry"/>
                </mxCell>
                <mxCell id="3CQ7506Tf0rn0GcnVbkW-8" value="yoga mat" style="text;html=1;strokeColor=none;fillColor=none;align=center;verticalAlign=middle;whiteSpace=wrap;rounded=0;" parent="K5TGRKnv54WYdZr27yc3-1" vertex="1">
                    <mxGeometry x="460" y="795" width="60" height="30" as="geometry"/>
                </mxCell>
                <mxCell id="3CQ7506Tf0rn0GcnVbkW-9" value="hoop" style="text;html=1;strokeColor=none;fillColor=none;align=center;verticalAlign=middle;whiteSpace=wrap;rounded=0;" parent="K5TGRKnv54WYdZr27yc3-1" vertex="1">
                    <mxGeometry x="580" y="790" width="60" height="30" as="geometry"/>
                </mxCell>
                <mxCell id="3CQ7506Tf0rn0GcnVbkW-10" value="hammock" style="text;html=1;strokeColor=none;fillColor=none;align=center;verticalAlign=middle;whiteSpace=wrap;rounded=0;" parent="K5TGRKnv54WYdZr27yc3-1" vertex="1">
                    <mxGeometry x="580" y="817.5" width="60" height="30" as="geometry"/>
                </mxCell>
                <mxCell id="3CQ7506Tf0rn0GcnVbkW-11" value="wheel" style="text;html=1;strokeColor=none;fillColor=none;align=center;verticalAlign=middle;whiteSpace=wrap;rounded=0;" parent="K5TGRKnv54WYdZr27yc3-1" vertex="1">
                    <mxGeometry x="460" y="820" width="60" height="30" as="geometry"/>
                </mxCell>
                <mxCell id="3CQ7506Tf0rn0GcnVbkW-12" value="Dropdown menu" style="rounded=0;whiteSpace=wrap;html=1;" parent="K5TGRKnv54WYdZr27yc3-1" vertex="1">
                    <mxGeometry x="440" y="353" width="240" height="30" as="geometry"/>
                </mxCell>
                <mxCell id="3CQ7506Tf0rn0GcnVbkW-13" value="District*" style="text;html=1;strokeColor=none;fillColor=none;align=center;verticalAlign=middle;whiteSpace=wrap;rounded=0;" parent="K5TGRKnv54WYdZr27yc3-1" vertex="1">
                    <mxGeometry x="370" y="353" width="60" height="30" as="geometry"/>
                </mxCell>
                <mxCell id="3CQ7506Tf0rn0GcnVbkW-14" value="" style="triangle;whiteSpace=wrap;html=1;rotation=90;" parent="K5TGRKnv54WYdZr27yc3-1" vertex="1">
                    <mxGeometry x="655" y="355" width="10" height="30" as="geometry"/>
                </mxCell>
                <mxCell id="JqJfr0frG_wmqcmYab6B-0" value="Studio Icon" style="text;html=1;strokeColor=none;fillColor=none;align=center;verticalAlign=middle;whiteSpace=wrap;rounded=0;" vertex="1" parent="K5TGRKnv54WYdZr27yc3-1">
                    <mxGeometry x="350" y="745" width="90" height="30" as="geometry"/>
                </mxCell>
                <mxCell id="JqJfr0frG_wmqcmYab6B-1" value="upload image" style="rounded=0;whiteSpace=wrap;html=1;" vertex="1" parent="K5TGRKnv54WYdZr27yc3-1">
                    <mxGeometry x="440" y="745" width="240" height="30" as="geometry"/>
                </mxCell>
                <mxCell id="JqJfr0frG_wmqcmYab6B-2" value="Photos" style="text;html=1;strokeColor=none;fillColor=none;align=center;verticalAlign=middle;whiteSpace=wrap;rounded=0;" vertex="1" parent="K5TGRKnv54WYdZr27yc3-1">
                    <mxGeometry x="880" y="615" width="60" height="30" as="geometry"/>
                </mxCell>
                <mxCell id="JqJfr0frG_wmqcmYab6B-5" value="iamge1.png" style="rounded=1;whiteSpace=wrap;html=1;" vertex="1" parent="K5TGRKnv54WYdZr27yc3-1">
                    <mxGeometry x="960" y="620" width="250" height="20" as="geometry"/>
                </mxCell>
                <mxCell id="JqJfr0frG_wmqcmYab6B-6" value="image2.png" style="rounded=1;whiteSpace=wrap;html=1;" vertex="1" parent="K5TGRKnv54WYdZr27yc3-1">
                    <mxGeometry x="960" y="650" width="250" height="20" as="geometry"/>
                </mxCell>
                <mxCell id="JqJfr0frG_wmqcmYab6B-10" value="image3.png" style="rounded=1;whiteSpace=wrap;html=1;" vertex="1" parent="K5TGRKnv54WYdZr27yc3-1">
                    <mxGeometry x="960" y="685" width="250" height="20" as="geometry"/>
                </mxCell>
                <mxCell id="JqJfr0frG_wmqcmYab6B-13" value="image1" style="rounded=1;whiteSpace=wrap;html=1;strokeColor=#FF9933;" vertex="1" parent="K5TGRKnv54WYdZr27yc3-1">
                    <mxGeometry x="910" y="760" width="130" height="90" as="geometry"/>
                </mxCell>
                <mxCell id="JqJfr0frG_wmqcmYab6B-14" value="image2" style="rounded=1;whiteSpace=wrap;html=1;" vertex="1" parent="K5TGRKnv54WYdZr27yc3-1">
                    <mxGeometry x="1050" y="760" width="130" height="90" as="geometry"/>
                </mxCell>
                <mxCell id="JqJfr0frG_wmqcmYab6B-15" value="image3" style="rounded=1;whiteSpace=wrap;html=1;" vertex="1" parent="K5TGRKnv54WYdZr27yc3-1">
                    <mxGeometry x="1200" y="760" width="130" height="90" as="geometry"/>
                </mxCell>
                <mxCell id="JqJfr0frG_wmqcmYab6B-17" value="Select a cover photo" style="text;html=1;strokeColor=none;fillColor=none;align=center;verticalAlign=middle;whiteSpace=wrap;rounded=0;" vertex="1" parent="K5TGRKnv54WYdZr27yc3-1">
                    <mxGeometry x="910" y="722.5" width="120" height="30" as="geometry"/>
                </mxCell>
                <mxCell id="JqJfr0frG_wmqcmYab6B-18" value="" style="endArrow=classic;html=1;exitX=1;exitY=0.5;exitDx=0;exitDy=0;" edge="1" parent="K5TGRKnv54WYdZr27yc3-1" source="k7SAA7eJFqDNoLmVKYPc-16">
                    <mxGeometry width="50" height="50" relative="1" as="geometry">
                        <mxPoint x="740" y="720" as="sourcePoint"/>
                        <mxPoint x="850" y="690" as="targetPoint"/>
                    </mxGeometry>
                </mxCell>
                <mxCell id="NVVbHyQD01E63dEeQFMi-0" value="time" style="rounded=0;whiteSpace=wrap;html=1;" vertex="1" parent="K5TGRKnv54WYdZr27yc3-1">
                    <mxGeometry x="440" y="475" width="240" height="30" as="geometry"/>
                </mxCell>
                <mxCell id="NVVbHyQD01E63dEeQFMi-1" value="time" style="rounded=0;whiteSpace=wrap;html=1;" vertex="1" parent="K5TGRKnv54WYdZr27yc3-1">
                    <mxGeometry x="440" y="520" width="240" height="30" as="geometry"/>
                </mxCell>
                <mxCell id="NVVbHyQD01E63dEeQFMi-2" value="Opening Time *" style="text;html=1;strokeColor=none;fillColor=none;align=center;verticalAlign=middle;whiteSpace=wrap;rounded=0;" vertex="1" parent="K5TGRKnv54WYdZr27yc3-1">
                    <mxGeometry x="340" y="475" width="100" height="30" as="geometry"/>
                </mxCell>
                <mxCell id="NVVbHyQD01E63dEeQFMi-3" value="Closing Time *" style="text;html=1;strokeColor=none;fillColor=none;align=center;verticalAlign=middle;whiteSpace=wrap;rounded=0;" vertex="1" parent="K5TGRKnv54WYdZr27yc3-1">
                    <mxGeometry x="340" y="520" width="100" height="30" as="geometry"/>
                </mxCell>
                <mxCell id="NVVbHyQD01E63dEeQFMi-4" value="" style="triangle;whiteSpace=wrap;html=1;rotation=90;" vertex="1" parent="K5TGRKnv54WYdZr27yc3-1">
                    <mxGeometry x="655" y="475" width="10" height="30" as="geometry"/>
                </mxCell>
                <mxCell id="NVVbHyQD01E63dEeQFMi-5" value="" style="triangle;whiteSpace=wrap;html=1;rotation=90;" vertex="1" parent="K5TGRKnv54WYdZr27yc3-1">
                    <mxGeometry x="655" y="520" width="10" height="30" as="geometry"/>
                </mxCell>
                <mxCell id="khA3zYwbyDe1PAHYU5RO-0" value="30mins as an unit" style="shape=note;whiteSpace=wrap;html=1;backgroundOutline=1;darkOpacity=0.05;fontSize=16;size=16;fillColor=#e3c800;fontColor=#000000;strokeColor=#B09500;" vertex="1" parent="K5TGRKnv54WYdZr27yc3-1">
                    <mxGeometry x="710" y="470" width="160" height="40" as="geometry"/>
                </mxCell>
                <mxCell id="khA3zYwbyDe1PAHYU5RO-1" value="30mins as an unit" style="shape=note;whiteSpace=wrap;html=1;backgroundOutline=1;darkOpacity=0.05;fontSize=16;size=16;fillColor=#e3c800;fontColor=#000000;strokeColor=#B09500;" vertex="1" parent="K5TGRKnv54WYdZr27yc3-1">
                    <mxGeometry x="710" y="520" width="160" height="40" as="geometry"/>
                </mxCell>
            </root>
        </mxGraphModel>
    </diagram>
    <diagram id="PMKUmwJOwJAtMEYcPmbD" name="Owner Login">
        <mxGraphModel dx="1120" dy="809" grid="1" gridSize="10" guides="1" tooltips="1" connect="1" arrows="1" fold="1" page="1" pageScale="1" pageWidth="827" pageHeight="1169" math="0" shadow="0">
            <root>
                <mxCell id="0"/>
                <mxCell id="1" parent="0"/>
                <mxCell id="SP0lcnZmTYrrIuzKgo8F-1" value="&lt;font style=&quot;font-size: 19px;&quot;&gt;Logo&lt;/font&gt;" style="ellipse;whiteSpace=wrap;html=1;" parent="1" vertex="1">
                    <mxGeometry x="240" y="110" width="360" height="130" as="geometry"/>
                </mxCell>
                <mxCell id="SP0lcnZmTYrrIuzKgo8F-2" value="&lt;font style=&quot;font-size: 14px;&quot;&gt;Email&lt;/font&gt;" style="text;html=1;strokeColor=none;fillColor=none;align=center;verticalAlign=middle;whiteSpace=wrap;rounded=0;" parent="1" vertex="1">
                    <mxGeometry x="10" y="280" width="150" height="40" as="geometry"/>
                </mxCell>
                <mxCell id="SP0lcnZmTYrrIuzKgo8F-3" value="" style="rounded=0;whiteSpace=wrap;html=1;" parent="1" vertex="1">
                    <mxGeometry x="70" y="310" width="280" height="40" as="geometry"/>
                </mxCell>
                <mxCell id="SP0lcnZmTYrrIuzKgo8F-4" value="&lt;font style=&quot;font-size: 14px;&quot;&gt;Password&lt;/font&gt;" style="text;html=1;strokeColor=none;fillColor=none;align=center;verticalAlign=middle;whiteSpace=wrap;rounded=0;" parent="1" vertex="1">
                    <mxGeometry x="30" y="360" width="150" height="40" as="geometry"/>
                </mxCell>
                <mxCell id="SP0lcnZmTYrrIuzKgo8F-5" value="" style="rounded=0;whiteSpace=wrap;html=1;" parent="1" vertex="1">
                    <mxGeometry x="70" y="390" width="280" height="40" as="geometry"/>
                </mxCell>
                <mxCell id="BObh9joYhY_K_mCteK8Y-1" value="&lt;font style=&quot;font-size: 21px;&quot;&gt;Login&lt;/font&gt;" style="text;html=1;strokeColor=none;fillColor=none;align=center;verticalAlign=middle;whiteSpace=wrap;rounded=0;" parent="1" vertex="1">
                    <mxGeometry x="390" y="250" width="60" height="30" as="geometry"/>
                </mxCell>
                <mxCell id="BObh9joYhY_K_mCteK8Y-2" value="" style="endArrow=none;html=1;rounded=0;" parent="1" edge="1">
                    <mxGeometry width="50" height="50" relative="1" as="geometry">
                        <mxPoint x="420" y="530" as="sourcePoint"/>
                        <mxPoint x="419.5" y="300" as="targetPoint"/>
                    </mxGeometry>
                </mxCell>
                <mxCell id="ejKgKYNh45ns0x8WAjn6-1" value="&lt;font style=&quot;font-size: 18px;&quot;&gt;Google Social Login&lt;/font&gt;" style="rounded=0;whiteSpace=wrap;html=1;" parent="1" vertex="1">
                    <mxGeometry x="480" y="310" width="250" height="60" as="geometry"/>
                </mxCell>
                <mxCell id="ejKgKYNh45ns0x8WAjn6-2" value="Login" style="rounded=0;whiteSpace=wrap;html=1;" parent="1" vertex="1">
                    <mxGeometry x="80" y="450" width="130" height="40" as="geometry"/>
                </mxCell>
                <mxCell id="ejKgKYNh45ns0x8WAjn6-3" value="&lt;font style=&quot;font-size: 17px;&quot;&gt;Forget Password?&lt;/font&gt;" style="rounded=0;whiteSpace=wrap;html=1;" parent="1" vertex="1">
                    <mxGeometry x="290" y="540" width="260" height="60" as="geometry"/>
                </mxCell>
            </root>
        </mxGraphModel>
    </diagram>
    <diagram id="68D5pWlkQtJZufxkKZMe" name="Owner Register">
        <mxGraphModel dx="1378" dy="995" grid="1" gridSize="10" guides="1" tooltips="1" connect="1" arrows="1" fold="1" page="1" pageScale="1" pageWidth="827" pageHeight="1169" math="0" shadow="0">
            <root>
                <mxCell id="0"/>
                <mxCell id="1" parent="0"/>
                <mxCell id="Jm79D-0cpPxaUaNklWSI-3" value="Register" style="text;html=1;strokeColor=none;fillColor=none;align=center;verticalAlign=middle;whiteSpace=wrap;rounded=0;fontSize=30;" parent="1" vertex="1">
                    <mxGeometry x="337.5" y="290" width="160" height="30" as="geometry"/>
                </mxCell>
                <mxCell id="Jm79D-0cpPxaUaNklWSI-4" value="Email Address" style="text;html=1;strokeColor=none;fillColor=none;align=left;verticalAlign=middle;whiteSpace=wrap;rounded=0;" parent="1" vertex="1">
                    <mxGeometry x="180" y="520" width="130" height="30" as="geometry"/>
                </mxCell>
                <mxCell id="Jm79D-0cpPxaUaNklWSI-5" value="Password" style="text;html=1;strokeColor=none;fillColor=none;align=left;verticalAlign=middle;whiteSpace=wrap;rounded=0;" parent="1" vertex="1">
                    <mxGeometry x="180" y="600" width="130" height="30" as="geometry"/>
                </mxCell>
                <mxCell id="Jm79D-0cpPxaUaNklWSI-6" value="First Name" style="text;html=1;strokeColor=none;fillColor=none;align=left;verticalAlign=middle;whiteSpace=wrap;rounded=0;" parent="1" vertex="1">
                    <mxGeometry x="182.5" y="350" width="130" height="30" as="geometry"/>
                </mxCell>
                <mxCell id="sU2wDvghH9GR1MwAD3pi-1" value="&lt;font style=&quot;font-size: 19px;&quot;&gt;Logo&lt;/font&gt;" style="ellipse;whiteSpace=wrap;html=1;" parent="1" vertex="1">
                    <mxGeometry x="242.5" y="140" width="360" height="130" as="geometry"/>
                </mxCell>
                <mxCell id="mRxpty9PVpOPyNXZUcJ3-1" value="Last Name" style="text;html=1;strokeColor=none;fillColor=none;align=left;verticalAlign=middle;whiteSpace=wrap;rounded=0;" parent="1" vertex="1">
                    <mxGeometry x="182.5" y="430" width="130" height="30" as="geometry"/>
                </mxCell>
                <mxCell id="mRxpty9PVpOPyNXZUcJ3-2" value="Confirm Password" style="text;html=1;strokeColor=none;fillColor=none;align=left;verticalAlign=middle;whiteSpace=wrap;rounded=0;" parent="1" vertex="1">
                    <mxGeometry x="180" y="680" width="130" height="30" as="geometry"/>
                </mxCell>
                <mxCell id="waOq7GuMrTDdifsoaNq4-1" value="" style="rounded=0;whiteSpace=wrap;html=1;" parent="1" vertex="1">
                    <mxGeometry x="182.5" y="380" width="470" height="40" as="geometry"/>
                </mxCell>
                <mxCell id="waOq7GuMrTDdifsoaNq4-2" value="" style="rounded=0;whiteSpace=wrap;html=1;" parent="1" vertex="1">
                    <mxGeometry x="182.5" y="460" width="470" height="40" as="geometry"/>
                </mxCell>
                <mxCell id="waOq7GuMrTDdifsoaNq4-3" value="" style="rounded=0;whiteSpace=wrap;html=1;" parent="1" vertex="1">
                    <mxGeometry x="180" y="550" width="472.5" height="40" as="geometry"/>
                </mxCell>
                <mxCell id="waOq7GuMrTDdifsoaNq4-4" value="" style="rounded=0;whiteSpace=wrap;html=1;" parent="1" vertex="1">
                    <mxGeometry x="180" y="630" width="472.5" height="40" as="geometry"/>
                </mxCell>
                <mxCell id="waOq7GuMrTDdifsoaNq4-5" value="" style="rounded=0;whiteSpace=wrap;html=1;" parent="1" vertex="1">
                    <mxGeometry x="180" y="710" width="472.5" height="40" as="geometry"/>
                </mxCell>
                <mxCell id="waOq7GuMrTDdifsoaNq4-6" value="Register" style="rounded=1;whiteSpace=wrap;html=1;fillColor=#0050ef;strokeColor=#001DBC;fontColor=#ffffff;" parent="1" vertex="1">
                    <mxGeometry x="174" y="770" width="480" height="35" as="geometry"/>
                </mxCell>
                <mxCell id="Ok5Sy8oRaUG5iEko2pER-1" value="Or Continue with" style="text;html=1;strokeColor=none;fillColor=none;align=center;verticalAlign=middle;whiteSpace=wrap;rounded=0;" parent="1" vertex="1">
                    <mxGeometry x="337.5" y="840" width="110" height="30" as="geometry"/>
                </mxCell>
                <mxCell id="Ok5Sy8oRaUG5iEko2pER-2" value="" style="endArrow=none;html=1;" parent="1" edge="1">
                    <mxGeometry width="50" height="50" relative="1" as="geometry">
                        <mxPoint x="460" y="854.6" as="sourcePoint"/>
                        <mxPoint x="650" y="855" as="targetPoint"/>
                    </mxGeometry>
                </mxCell>
                <mxCell id="Ok5Sy8oRaUG5iEko2pER-3" value="" style="endArrow=none;html=1;" parent="1" edge="1">
                    <mxGeometry width="50" height="50" relative="1" as="geometry">
                        <mxPoint x="180" y="855" as="sourcePoint"/>
                        <mxPoint x="337.5" y="855" as="targetPoint"/>
                    </mxGeometry>
                </mxCell>
                <mxCell id="coRXHAbHAwppVPbpCl-p-1" value="&lt;font style=&quot;font-size: 18px;&quot;&gt;Google Social Login&lt;/font&gt;" style="rounded=0;whiteSpace=wrap;html=1;" parent="1" vertex="1">
                    <mxGeometry x="280" y="890" width="250" height="60" as="geometry"/>
                </mxCell>
            </root>
        </mxGraphModel>
    </diagram>
</mxfile>